<svg width="21" height="46" viewBox="0 0 21 46" fill="none" xmlns="http://www.w3.org/2000/svg">
<path d="M0.0041114 3.14515C-0.0406822 2.72366 0.284753 2.34783 0.730707 2.30553C0.759248 2.30291 0.78779 2.30178 0.815935 2.30178H0.93129C1.30034 0.951936 2.58707 0.00711783 4.06328 0.00187715H6.49876C7.43467 0.00487182 8.32342 0.391185 8.93388 1.06124C10.0906 -0.210369 12.1194 -0.35561 13.466 0.73632C13.527 0.785358 13.5857 0.837016 13.6424 0.890545C15.3532 -0.46267 17.9013 -0.249674 19.3339 1.36595C19.5844 1.6482 19.7906 1.96338 19.9452 2.30178H20.1838C20.6321 2.29954 20.9976 2.6413 21 3.06467C21 3.09125 20.9984 3.1182 20.9956 3.14515L21 3.06467L17.116 40.677C17.0891 40.9854 17.1886 41.2916 17.3939 41.5327L19.066 43.5065C19.6265 44.1676 19.5135 45.1326 18.8134 45.6616C18.5253 45.8794 18.1673 45.9981 17.7982 45.9981H3.31725C2.42058 45.9981 1.69358 45.3116 1.69358 44.4648C1.69358 44.1167 1.81884 43.7794 2.04915 43.5073L3.72158 41.5327C3.92454 41.2953 4.02442 40.9936 4.00064 40.6893L0.0041114 3.14515ZM6.49876 1.53515H4.06328C3.48572 1.53665 2.95295 1.829 2.66516 2.30178H7.8965C7.60871 1.829 7.07593 1.53665 6.49876 1.53515ZM16.2404 1.53515C15.4397 1.53627 14.6904 1.90873 14.2366 2.53162C13.9833 2.88088 13.4783 2.97034 13.108 2.73077C12.9879 2.65328 12.892 2.54622 12.8305 2.42119C12.4587 1.65868 11.5026 1.32515 10.6951 1.67627C10.3748 1.81552 10.1116 2.0506 9.9463 2.34483C10.3011 2.42606 10.5524 2.72366 10.5576 3.06842V5.36832C10.5576 5.79132 10.9211 6.13458 11.3694 6.13458C11.8177 6.13458 12.1812 5.79132 12.1812 5.36832C12.1812 4.94495 12.5447 4.60169 12.9931 4.60169C13.4414 4.60169 13.8049 4.94495 13.8049 5.36832V7.66785C13.8049 8.09122 14.1684 8.43449 14.6167 8.43449C15.0651 8.43449 15.4286 8.09122 15.4286 7.66785V3.06842C15.4286 2.64505 15.7921 2.30178 16.2404 2.30178H18.0408C17.5838 1.81515 16.9285 1.53627 16.2404 1.53515ZM17.0522 3.83505V7.66785C17.0522 8.93796 15.9617 9.96776 14.6167 9.96776C13.2717 9.96776 12.1812 8.93796 12.1812 7.66785V7.53683C10.9131 7.9602 9.52175 7.33282 9.07341 6.13533C8.98105 5.88902 8.93388 5.62961 8.93388 5.36832V3.83505H1.70903L2.44674 10.7344H18.5776L19.2895 3.83505H17.0522ZM4.98966 42.491L3.31725 44.4648H17.7982L16.1258 42.491C15.6601 41.9411 15.4353 41.2433 15.4983 40.5414L17.0522 25.5337L18.419 12.2677H2.61006L5.61875 40.5553C5.67821 41.2527 5.45306 41.9452 4.98966 42.491Z" fill="#2D3748"/>
<path d="M13.873 41.3985C13.873 40.9752 13.5299 40.632 13.1066 40.632H6.52156C6.09826 40.632 5.75511 40.9752 5.75511 41.3985V41.3985C5.75511 41.8218 6.09826 42.1649 6.52156 42.1649H13.1066C13.5299 42.1649 13.873 41.8218 13.873 41.3985V41.3985Z" fill="#2D3748"/>
<path d="M6.56689 14.6127C6.56689 14.1644 6.20342 13.8009 5.75506 13.8009V13.8009C5.30669 13.8009 4.94322 14.1644 4.94322 14.6127V19.8884C4.94322 20.3368 5.30669 20.7002 5.75506 20.7002V20.7002C6.20342 20.7002 6.56689 20.3368 6.56689 19.8884V14.6127Z" fill="#2D3748"/>
<path d="M6.56689 23C6.56689 22.5767 6.22373 22.2335 5.80042 22.2335H5.70964C5.28632 22.2335 4.94316 22.5767 4.94316 23V23C4.94316 23.4233 5.28632 23.7665 5.70964 23.7665H5.80041C6.22373 23.7665 6.56689 23.4233 6.56689 23V23Z" fill="#2D3748"/>
</svg>
