<svg width="16" height="34" viewBox="0 0 16 34" fill="none" xmlns="http://www.w3.org/2000/svg">
<path d="M13.4695 2.96717C12.9948 1.32573 11.4819 0.125 9.6875 0.125C8.50548 0.125 7.44587 0.646578 6.72418 1.47127C6.42936 1.32945 6.09896 1.25 5.75 1.25C4.67703 1.25 3.78012 2.00129 3.55498 3.00634C3.35621 2.96176 3.1497 2.9375 2.9375 2.9375C1.38423 2.9375 0.125 4.19673 0.125 5.75C0.125 7.30327 1.38423 8.5625 2.9375 8.5625H13.0625C14.6158 8.5625 15.875 7.30327 15.875 5.75C15.875 4.33496 14.8298 3.1644 13.4695 2.96717Z" fill="#FFF5DF"/>
<path d="M0.394897 9.125L2.29207 32.8397C2.33883 33.4244 2.82694 33.875 3.41348 33.875H12.5863C13.1729 33.875 13.661 33.4244 13.7077 32.8397L15.6049 9.125H0.394897Z" fill="#C7C6C5"/>
<path d="M13.8049 31.625L15.6049 9.125H0.394897L2.1949 31.625H13.8049Z" fill="#FCCE0B"/>
<path d="M8 31.625H13.805L15.605 9.125H8V31.625Z" fill="#F9A21E"/>
<path d="M15.6051 9.125L15.7779 6.96472C15.8303 6.31011 15.3132 5.75 14.6565 5.75H1.3437C0.686979 5.75 0.169902 6.31011 0.222285 6.96472L0.395112 9.125H15.6051Z" fill="#F0D9BA"/>
<path d="M14.6564 5.75H8V9.125H15.605L15.7778 6.96472C15.8302 6.31011 15.3131 5.75 14.6564 5.75Z" fill="#EEC08E"/>
<path d="M5.75 33.875H12.5864C13.173 33.875 13.6611 33.4244 13.7078 32.8397L13.805 31.625H8C8 32.8676 6.99263 33.875 5.75 33.875Z" fill="#A0A5A9"/>
<path d="M3.5 28.6249C4.12132 28.6249 4.625 28.1212 4.625 27.4999C4.625 26.8786 4.12132 26.3749 3.5 26.3749C2.87868 26.3749 2.375 26.8786 2.375 27.4999C2.375 28.1212 2.87868 28.6249 3.5 28.6249Z" fill="#F9A21E"/>
<path d="M4.34375 16.8124C4.80974 16.8124 5.1875 16.4346 5.1875 15.9686C5.1875 15.5026 4.80974 15.1249 4.34375 15.1249C3.87776 15.1249 3.5 15.5026 3.5 15.9686C3.5 16.4346 3.87776 16.8124 4.34375 16.8124Z" fill="#F9A21E"/>
<path d="M6.12488 23.9376C6.43554 23.9376 6.68738 23.6858 6.68738 23.3751C6.68738 23.0645 6.43554 22.8126 6.12488 22.8126C5.81422 22.8126 5.56238 23.0645 5.56238 23.3751C5.56238 23.6858 5.81422 23.9376 6.12488 23.9376Z" fill="#F9A21E"/>
<path d="M12.5 15.875C13.1213 15.875 13.625 15.3713 13.625 14.75C13.625 14.1287 13.1213 13.625 12.5 13.625C11.8787 13.625 11.375 14.1287 11.375 14.75C11.375 15.3713 11.8787 15.875 12.5 15.875Z" fill="#FCCE0B"/>
<path d="M11.6562 28.6249C12.1222 28.6249 12.5 28.2471 12.5 27.7811C12.5 27.3151 12.1222 26.9374 11.6562 26.9374C11.1903 26.9374 10.8125 27.3151 10.8125 27.7811C10.8125 28.2471 11.1903 28.6249 11.6562 28.6249Z" fill="#FCCE0B"/>
<path d="M9.87512 19.4376C10.1858 19.4376 10.4376 19.1858 10.4376 18.8751C10.4376 18.5645 10.1858 18.3126 9.87512 18.3126C9.56446 18.3126 9.31262 18.5645 9.31262 18.8751C9.31262 19.1858 9.56446 19.4376 9.87512 19.4376Z" fill="#FCCE0B"/>
<path d="M8 5.75V12.5C8 13.1214 8.50365 13.625 9.125 13.625C9.74635 13.625 10.25 13.1214 10.25 12.5V10.25C10.25 9.62865 10.7536 9.125 11.375 9.125C11.9964 9.125 12.5 9.62865 12.5 10.25C12.5 10.8714 13.0036 11.375 13.625 11.375C14.2464 11.375 14.75 10.8714 14.75 10.25V5.75C14.75 5.12865 14.2464 4.625 13.625 4.625H9.125C8.50365 4.625 8 5.12865 8 5.75Z" fill="#FFF5DF"/>
<mask id="path-15-inside-1" fill="white">
<path fill-rule="evenodd" clip-rule="evenodd" d="M9.6875 0.125C11.4819 0.125 12.9948 1.32573 13.4695 2.96717C14.8298 3.1644 15.875 4.33496 15.875 5.75C15.875 6.53602 15.5861 6.40674 15.0381 6.16154C14.9489 6.12163 14.8528 6.07863 14.75 6.03602V10.25C14.75 10.8714 14.2464 11.375 13.625 11.375C13.0036 11.375 12.5 10.8714 12.5 10.25C12.5 9.62865 11.9964 9.125 11.375 9.125C10.7536 9.125 10.25 9.62865 10.25 10.25V12.5C10.25 13.1214 9.74635 13.625 9.125 13.625C8.50365 13.625 8 13.1214 8 12.5L8 5.75H1.67827C1.41267 5.88609 1.16566 6.11232 0.950282 6.30958C0.453472 6.7646 0.125 7.06544 0.125 5.75C0.125 4.19673 1.38423 2.9375 2.9375 2.9375C3.1497 2.9375 3.35621 2.96176 3.55498 3.00634C3.78013 2.00129 4.67703 1.25 5.75 1.25C6.09896 1.25 6.42936 1.32945 6.72418 1.47127C7.44587 0.646578 8.50548 0.125 9.6875 0.125Z"/>
</mask>
<path fill-rule="evenodd" clip-rule="evenodd" d="M9.6875 0.125C11.4819 0.125 12.9948 1.32573 13.4695 2.96717C14.8298 3.1644 15.875 4.33496 15.875 5.75C15.875 6.53602 15.5861 6.40674 15.0381 6.16154C14.9489 6.12163 14.8528 6.07863 14.75 6.03602V10.25C14.75 10.8714 14.2464 11.375 13.625 11.375C13.0036 11.375 12.5 10.8714 12.5 10.25C12.5 9.62865 11.9964 9.125 11.375 9.125C10.7536 9.125 10.25 9.62865 10.25 10.25V12.5C10.25 13.1214 9.74635 13.625 9.125 13.625C8.50365 13.625 8 13.1214 8 12.5L8 5.75H1.67827C1.41267 5.88609 1.16566 6.11232 0.950282 6.30958C0.453472 6.7646 0.125 7.06544 0.125 5.75C0.125 4.19673 1.38423 2.9375 2.9375 2.9375C3.1497 2.9375 3.35621 2.96176 3.55498 3.00634C3.78013 2.00129 4.67703 1.25 5.75 1.25C6.09896 1.25 6.42936 1.32945 6.72418 1.47127C7.44587 0.646578 8.50548 0.125 9.6875 0.125Z" fill="#FFF5DF"/>
<path d="M13.4695 2.96717L13.2773 3.02273L13.3132 3.1466L13.4408 3.1651L13.4695 2.96717ZM15.0381 6.16154L14.9564 6.3441L14.9564 6.3441L15.0381 6.16154ZM14.75 6.03602L14.8266 5.85126L14.55 5.73663V6.03602H14.75ZM8 12.5L8.2 12.5L8.2 12.5L8 12.5ZM8 5.75L8.2 5.75L8.2 5.55H8V5.75ZM1.67827 5.75V5.55H1.63002L1.58707 5.572L1.67827 5.75ZM0.950282 6.30958L0.8152 6.16209L0.8152 6.16209L0.950282 6.30958ZM0.125 5.75L0.325 5.75V5.75H0.125ZM3.55498 3.00634L3.51122 3.20149L3.70642 3.24527L3.75015 3.05005L3.55498 3.00634ZM6.72418 1.47127L6.63748 1.6515L6.77453 1.71743L6.87469 1.60298L6.72418 1.47127ZM13.6616 2.91161C13.1629 1.18702 11.5734 -0.075 9.6875 -0.075V0.325C11.3903 0.325 12.8267 1.46443 13.2773 3.02273L13.6616 2.91161ZM16.075 5.75C16.075 4.23411 14.9554 2.98051 13.4982 2.76924L13.4408 3.1651C14.7042 3.34828 15.675 4.43581 15.675 5.75H16.075ZM14.9564 6.3441C15.0903 6.40399 15.2215 6.46295 15.3375 6.50117C15.4487 6.53784 15.5824 6.56863 15.7107 6.53647C15.8602 6.49899 15.9559 6.39023 16.0084 6.25092C16.057 6.12197 16.075 5.95348 16.075 5.75H15.675C15.675 5.93953 15.6568 6.04964 15.6341 6.10985C15.6236 6.13777 15.6149 6.14721 15.6134 6.14869C15.6128 6.14935 15.613 6.14898 15.614 6.14844C15.6149 6.14792 15.615 6.14808 15.6134 6.14848C15.601 6.15161 15.5596 6.15323 15.4626 6.12126C15.3703 6.09085 15.2599 6.04169 15.1198 5.97899L14.9564 6.3441ZM14.6734 6.22078C14.7733 6.26217 14.8669 6.30406 14.9564 6.3441L15.1198 5.97899C15.0309 5.93919 14.9323 5.8951 14.8266 5.85126L14.6734 6.22078ZM14.95 10.25V6.03602H14.55V10.25H14.95ZM13.625 11.575C14.3568 11.575 14.95 10.9818 14.95 10.25H14.55C14.55 10.7609 14.1359 11.175 13.625 11.175V11.575ZM12.3 10.25C12.3 10.9818 12.8932 11.575 13.625 11.575V11.175C13.1141 11.175 12.7 10.7609 12.7 10.25H12.3ZM11.375 9.325C11.8859 9.325 12.3 9.73911 12.3 10.25H12.7C12.7 9.51819 12.1068 8.925 11.375 8.925V9.325ZM10.45 10.25C10.45 9.73911 10.8641 9.325 11.375 9.325V8.925C10.6432 8.925 10.05 9.51819 10.05 10.25H10.45ZM10.45 12.5V10.25H10.05V12.5H10.45ZM9.125 13.825C9.85681 13.825 10.45 13.2318 10.45 12.5H10.05C10.05 13.0109 9.63589 13.425 9.125 13.425V13.825ZM7.8 12.5C7.8 13.2318 8.39319 13.825 9.125 13.825V13.425C8.61411 13.425 8.2 13.0109 8.2 12.5H7.8ZM7.8 5.75L7.8 12.5L8.2 12.5L8.2 5.75L7.8 5.75ZM1.67827 5.95H8V5.55H1.67827V5.95ZM1.08536 6.45707C1.30528 6.25565 1.53229 6.04952 1.76947 5.928L1.58707 5.572C1.29305 5.72265 1.02603 5.96899 0.8152 6.16209L1.08536 6.45707ZM-0.075 5.75C-0.0750001 6.08287 -0.0546522 6.33135 -0.00959049 6.50627C0.0322749 6.66878 0.116903 6.84611 0.307572 6.88886C0.395134 6.9085 0.47706 6.8912 0.54259 6.86601C0.608109 6.84083 0.670635 6.80265 0.727707 6.76204C0.840611 6.68168 0.964344 6.56791 1.08536 6.45707L0.8152 6.16209C0.687815 6.27876 0.584185 6.37322 0.495773 6.43614C0.452186 6.46716 0.420565 6.48438 0.399076 6.49264C0.377596 6.5009 0.379649 6.49509 0.395101 6.49856C0.441552 6.50898 0.413011 6.54331 0.377763 6.40648C0.345711 6.28206 0.325 6.07485 0.325 5.75L-0.075 5.75ZM2.9375 2.7375C1.27377 2.7375 -0.075 4.08627 -0.075 5.75H0.325C0.325 4.30718 1.49468 3.1375 2.9375 3.1375V2.7375ZM3.59875 2.81118C3.38619 2.76351 3.16501 2.7375 2.9375 2.7375V3.1375C3.1344 3.1375 3.32623 3.16 3.51122 3.20149L3.59875 2.81118ZM5.75 1.05C4.5813 1.05 3.60496 1.8683 3.35982 2.96262L3.75015 3.05005C3.95529 2.13428 4.77276 1.45 5.75 1.45V1.05ZM6.81088 1.29104C6.4896 1.13649 6.12962 1.05 5.75 1.05V1.45C6.0683 1.45 6.36912 1.52241 6.63748 1.6515L6.81088 1.29104ZM9.6875 -0.075C8.44528 -0.075 7.33164 0.473413 6.57367 1.33956L6.87469 1.60298C7.5601 0.819744 8.56568 0.325 9.6875 0.325V-0.075Z" fill="#F0D9BA" mask="url(#path-15-inside-1)"/>
<path d="M2.69617 6.875C2.06645 6.875 1.57061 7.41212 1.62081 8.0398L3.55377 32.2018C3.57852 32.5114 3.83699 32.75 4.14763 32.75C4.48598 32.75 4.7564 32.4685 4.7429 32.1305L3.77413 7.91063C3.75093 7.3321 3.27519 6.875 2.69617 6.875V6.875Z" fill="white"/>
</svg>
