<svg width="28" height="28" viewBox="0 0 28 28" fill="none" xmlns="http://www.w3.org/2000/svg">
<g filter="url(#filter0_d)">
<path d="M20.3933 21C19.9685 21.0024 19.5602 20.8355 19.2586 20.5362L6.47345 7.74145C6.06807 7.33576 5.90975 6.74446 6.05813 6.19029C6.20651 5.63611 6.63905 5.20325 7.19281 5.05476C7.74658 4.90626 8.33743 5.0647 8.74282 5.47039L21.528 18.2651C21.8305 18.5654 22.0007 18.9742 22.0007 19.4006C22.0007 19.8271 21.8305 20.2359 21.528 20.5362C21.2264 20.8355 20.8181 21.0024 20.3933 21Z" fill="white"/>
<path d="M7.60741 20.9999C7.18262 21.0024 6.77433 20.8355 6.47273 20.5361C6.17018 20.2358 6 19.827 6 19.4006C6 18.9742 6.17018 18.5654 6.47273 18.2651L19.2579 5.47035C19.8845 4.84322 20.9006 4.84322 21.5272 5.47035C22.1539 6.09749 22.1539 7.11428 21.5272 7.74141L8.74209 20.5361C8.44049 20.8355 8.0322 21.0024 7.60741 20.9999Z" fill="white"/>
</g>
<defs>
<filter id="filter0_d" x="0" y="0" width="28.0007" height="28" filterUnits="userSpaceOnUse" color-interpolation-filters="sRGB">
<feFlood flood-opacity="0" result="BackgroundImageFix"/>
<feColorMatrix in="SourceAlpha" type="matrix" values="0 0 0 0 0 0 0 0 0 0 0 0 0 0 0 0 0 0 127 0"/>
<feOffset dy="1"/>
<feGaussianBlur stdDeviation="3"/>
<feColorMatrix type="matrix" values="0 0 0 0 0 0 0 0 0 0 0 0 0 0 0 0 0 0 0.5 0"/>
<feBlend mode="normal" in2="BackgroundImageFix" result="effect1_dropShadow"/>
<feBlend mode="normal" in="SourceGraphic" in2="effect1_dropShadow" result="shape"/>
</filter>
</defs>
</svg>
