<svg width="11" height="11" viewBox="0 0 11 11" fill="none" xmlns="http://www.w3.org/2000/svg">
<path d="M9.00582 10.0041C8.74002 10.0057 8.48454 9.9013 8.29582 9.71411L0.295823 1.71411C0.0421649 1.46046 -0.0569 1.09074 0.0359454 0.744236C0.128791 0.397732 0.399441 0.127082 0.745945 0.0342365C1.09245 -0.058609 1.46216 0.0404559 1.71582 0.294115L9.71582 8.29411C9.90514 8.48188 10.0116 8.73748 10.0116 9.00411C10.0116 9.27075 9.90514 9.52635 9.71582 9.71411C9.5271 9.9013 9.27163 10.0057 9.00582 10.0041Z" fill="#718096"/>
<path d="M1.0058 10.0041C0.739995 10.0056 0.484517 9.90128 0.295798 9.71409C0.106486 9.52632 0 9.27073 0 9.00409C0 8.73745 0.106486 8.48186 0.295798 8.29409L8.2958 0.294092C8.68792 -0.0980305 9.32368 -0.0980305 9.7158 0.294092C10.1079 0.686214 10.1079 1.32197 9.7158 1.71409L1.7158 9.71409C1.52708 9.90128 1.2716 10.0056 1.0058 10.0041Z" fill="#718096"/>
</svg>
