<svg width="30" height="27" viewBox="0 0 30 27" fill="none" xmlns="http://www.w3.org/2000/svg">
<g filter="url(#filter0_d)">
<path d="M22.6025 15.3008C22.4874 15.3008 22.377 15.3465 22.2956 15.4279C22.2142 15.5093 22.1685 15.6197 22.1685 15.7348V17.3918C22.168 17.8518 21.985 18.2928 21.6597 18.618C21.3345 18.9433 20.8935 19.1263 20.4335 19.1268H8.6025C8.14251 19.1263 7.70152 18.9433 7.37625 18.618C7.05099 18.2928 6.86803 17.8518 6.8675 17.3918V15.7348C6.87032 15.6761 6.8612 15.6175 6.84068 15.5624C6.82017 15.5074 6.78869 15.4571 6.74816 15.4146C6.70763 15.372 6.65889 15.3382 6.60488 15.315C6.55088 15.2919 6.49275 15.28 6.434 15.28C6.37525 15.28 6.31712 15.2919 6.26312 15.315C6.20911 15.3382 6.16037 15.372 6.11984 15.4146C6.07931 15.4571 6.04783 15.5074 6.02732 15.5624C6.0068 15.6175 5.99768 15.6761 6.0005 15.7348V17.3918C6.00182 18.0809 6.27617 18.7415 6.76348 19.2288C7.25079 19.7161 7.91134 19.9905 8.6005 19.9918H20.4375C21.1267 19.9905 21.7872 19.7161 22.2745 19.2288C22.7618 18.7415 23.0362 18.0809 23.0375 17.3918V15.7348C23.0375 15.6777 23.0262 15.6212 23.0044 15.5685C22.9825 15.5158 22.9504 15.4679 22.91 15.4276C22.8696 15.3872 22.8217 15.3553 22.7689 15.3336C22.7161 15.3118 22.6596 15.3007 22.6025 15.3008V15.3008Z" fill="white"/>
<path d="M19.9725 17.0098H9.0725C9.01382 17.007 8.95518 17.0161 8.90013 17.0367C8.84508 17.0572 8.79477 17.0887 8.75224 17.1292C8.70972 17.1697 8.67586 17.2185 8.65273 17.2725C8.6296 17.3265 8.61768 17.3846 8.61768 17.4433C8.61768 17.5021 8.6296 17.5602 8.65273 17.6142C8.67586 17.6682 8.70972 17.717 8.75224 17.7575C8.79477 17.7981 8.84508 17.8295 8.90013 17.85C8.95518 17.8705 9.01382 17.8797 9.0725 17.8768H19.9725C20.0839 17.8715 20.1889 17.8235 20.2658 17.7428C20.3428 17.6621 20.3857 17.5548 20.3857 17.4433C20.3857 17.3318 20.3428 17.2246 20.2658 17.1439C20.1889 17.0632 20.0839 17.0152 19.9725 17.0098V17.0098Z" fill="white"/>
<path d="M18.9114 10.9068C18.8348 10.8212 18.7274 10.7694 18.6126 10.7628C18.4979 10.7562 18.3853 10.7954 18.2994 10.8718L14.9554 13.8598V5.45483C14.9582 5.39615 14.9491 5.3375 14.9286 5.28246C14.9081 5.22741 14.8766 5.17709 14.8361 5.13457C14.7955 5.09204 14.7468 5.05819 14.6928 5.03506C14.6388 5.01193 14.5807 5 14.5219 5C14.4632 5 14.405 5.01193 14.351 5.03506C14.297 5.05819 14.2483 5.09204 14.2077 5.13457C14.1672 5.17709 14.1357 5.22741 14.1152 5.28246C14.0947 5.3375 14.0856 5.39615 14.0884 5.45483V13.8608L10.7444 10.8738C10.658 10.8014 10.5468 10.7654 10.4343 10.7735C10.3219 10.7815 10.217 10.8331 10.1418 10.9172C10.0667 11.0013 10.0273 11.1113 10.0319 11.224C10.0364 11.3367 10.0847 11.4431 10.1664 11.5208L13.7994 14.7658C13.9981 14.9435 14.2554 15.0417 14.5219 15.0417C14.7885 15.0417 15.0457 14.9435 15.2444 14.7658L18.8774 11.5208C18.92 11.4828 18.9548 11.4367 18.9796 11.3853C19.0044 11.3338 19.0188 11.2779 19.0219 11.2209C19.0251 11.1638 19.0169 11.1067 18.998 11.0528C18.979 10.9989 18.9496 10.9493 18.9114 10.9068V10.9068Z" fill="white"/>
</g>
<defs>
<filter id="filter0_d" x="0" y="0" width="29.0375" height="26.9918" filterUnits="userSpaceOnUse" color-interpolation-filters="sRGB">
<feFlood flood-opacity="0" result="BackgroundImageFix"/>
<feColorMatrix in="SourceAlpha" type="matrix" values="0 0 0 0 0 0 0 0 0 0 0 0 0 0 0 0 0 0 127 0"/>
<feOffset dy="1"/>
<feGaussianBlur stdDeviation="3"/>
<feColorMatrix type="matrix" values="0 0 0 0 0 0 0 0 0 0 0 0 0 0 0 0 0 0 0.5 0"/>
<feBlend mode="normal" in2="BackgroundImageFix" result="effect1_dropShadow"/>
<feBlend mode="normal" in="SourceGraphic" in2="effect1_dropShadow" result="shape"/>
</filter>
</defs>
</svg>
