<svg width="27" height="27" viewBox="0 0 27 27" fill="none" xmlns="http://www.w3.org/2000/svg">
<path d="M25.0402 10.0519L23.7235 9.82858C23.6063 9.50228 23.4738 9.18217 23.3273 8.87091L24.1027 7.78615C24.7773 6.83837 24.669 5.55833 23.8477 4.74506L22.2654 3.16262C21.8182 2.71541 21.2254 2.46904 20.5963 2.46904C20.1009 2.46904 19.6271 2.62168 19.2295 2.90781L18.1406 3.68337C17.8038 3.52414 17.4621 3.38345 17.1181 3.26191L16.9003 1.97177C16.7088 0.829124 15.7286 0 14.5697 0H12.3343C11.1756 0 10.1954 0.829124 10.0043 1.96951L9.77543 3.31011C9.45222 3.42815 9.13355 3.56225 8.82147 3.71201L7.75236 2.942C7.3515 2.6534 6.87586 2.50097 6.37674 2.50097C5.74145 2.50097 5.1484 2.74775 4.70613 3.19599L3.12019 4.77679C2.30115 5.59582 2.19383 6.87483 2.86517 7.81787L3.65309 8.92488C3.50787 9.23737 3.37727 9.55893 3.26191 9.88708L1.97157 10.1048C0.829124 10.2966 0 11.2767 0 12.4354V14.6709C0 15.8296 0.829124 16.8097 1.96951 17.0011L3.31011 17.2297C3.42815 17.5531 3.56245 17.872 3.71201 18.1839L2.94489 19.2509C2.27026 20.1987 2.37861 21.479 3.19991 22.292L4.78214 23.8745C5.22935 24.3217 5.8222 24.568 6.45131 24.568C6.94672 24.568 7.42051 24.4154 7.81787 24.1295L8.92488 23.3416C9.21574 23.4767 9.51732 23.6005 9.82693 23.7119L10.0463 25.0284C10.2381 26.1709 11.2182 27 12.3769 27H14.6175C15.7762 27 16.7566 26.1709 16.9479 25.0299L17.1712 23.713C17.4975 23.5957 17.8176 23.4633 18.1289 23.3168L19.2101 24.0897C19.611 24.3783 20.0866 24.531 20.5858 24.531C21.2147 24.531 21.8075 24.2846 22.2547 23.8374L23.837 22.2549C24.6562 21.4359 24.7633 20.1569 24.092 19.2139L23.3158 18.1239C23.4662 17.8055 23.599 17.4856 23.7134 17.1675L25.0282 16.9483C26.1707 16.7566 26.9998 15.7764 26.9998 14.6177V12.3868C27.0128 11.2269 26.1896 10.2455 25.0402 10.0519V10.0519ZM25.4178 14.6177C25.4178 15.0007 25.1438 15.3247 24.7672 15.3879L23.0233 15.6786C22.7015 15.7321 22.442 15.9592 22.3454 16.2712C22.1905 16.7732 21.9777 17.2864 21.7134 17.7956C21.5638 18.0827 21.5877 18.4249 21.7756 18.6882L22.8033 20.1313C23.0249 20.4428 22.9893 20.8655 22.7184 21.1364L21.1362 22.7186C20.9856 22.8692 20.7953 22.9489 20.5858 22.9489C20.4206 22.9489 20.2646 22.8995 20.1324 22.8043L18.6954 21.7772C18.4311 21.5875 18.0875 21.5636 17.7989 21.7146C17.3156 21.9676 16.8021 22.1804 16.2725 22.3466C15.9635 22.4434 15.7379 22.7021 15.6841 23.0206L15.3879 24.7664C15.3247 25.144 15.0007 25.418 14.6175 25.418H12.3769C11.9938 25.418 11.67 25.144 11.6067 24.7674L11.3161 23.0235C11.2629 22.7038 11.038 22.4447 10.729 22.347C10.207 22.1822 9.70992 21.9779 9.25117 21.7395C9.12614 21.6747 8.9908 21.6427 8.85608 21.6427C8.68181 21.6427 8.50836 21.6963 8.35984 21.802L6.89708 22.843C6.76524 22.938 6.61528 22.986 6.45131 22.986C6.24181 22.986 6.05148 22.9065 5.90089 22.7557L4.31577 21.1708C4.0453 20.903 4.0109 20.4815 4.23152 20.1715L5.25304 18.7506C5.44524 18.4838 5.46872 18.1377 5.31381 17.8467C5.05405 17.3595 4.83879 16.8486 4.67379 16.3281C4.57615 16.0212 4.31845 15.7968 4.00122 15.7427L2.23338 15.4413C1.856 15.3778 1.58203 15.0538 1.58203 14.6709V12.4354C1.58203 12.0525 1.856 11.7285 2.234 11.665L3.95652 11.3744C4.27849 11.3202 4.53783 11.0926 4.63362 10.7794C4.79615 10.2476 5.00523 9.7332 5.2551 9.25117C5.40383 8.96464 5.37994 8.62331 5.19269 8.35984L4.15407 6.90058C3.93221 6.58912 3.96785 6.16642 4.23791 5.89636L5.8255 4.31413L5.83127 4.30815C5.97402 4.16293 6.16766 4.083 6.37674 4.083C6.54195 4.083 6.69809 4.13244 6.82787 4.22596L8.25499 5.25325C8.52216 5.44565 8.86864 5.46872 9.15868 5.31381C9.64586 5.05405 10.1567 4.83879 10.6767 4.674C10.9836 4.57656 11.2079 4.31927 11.2625 4.00122L11.5641 2.23338C11.6273 1.856 11.9513 1.58203 12.3345 1.58203H14.5699C14.9529 1.58203 15.2769 1.856 15.3403 2.234L15.631 3.95714C15.6854 4.27931 15.9134 4.53845 16.2267 4.63403C16.7609 4.79636 17.2936 5.01553 17.8104 5.2858C18.0976 5.43576 18.4397 5.41228 18.7042 5.22421L20.1507 4.19403C20.2823 4.09907 20.4323 4.05107 20.5965 4.05107C20.8058 4.05107 20.9961 4.13058 21.1469 4.28137L22.7318 5.86629C23.0023 6.13408 23.0369 6.55554 22.8148 6.86721L21.7867 8.30566C21.598 8.57016 21.5745 8.91335 21.7251 9.20091C21.9783 9.68417 22.1909 10.1977 22.3573 10.7275C22.4543 11.0365 22.7129 11.2619 23.0313 11.3156L24.7757 11.6117L24.7771 11.6119C25.1535 11.6751 25.4231 11.9944 25.4178 12.3712V14.6177Z" fill="white"/>
<path d="M13.5 8.25049C10.6054 8.25049 8.25049 10.6054 8.25049 13.5C8.25049 16.3947 10.6054 18.7496 13.5 18.7496C16.3947 18.7496 18.7496 16.3947 18.7496 13.5C18.7496 10.6054 16.3947 8.25049 13.5 8.25049ZM13.5 17.1675C11.4778 17.1675 9.83252 15.5223 9.83252 13.5C9.83252 11.4778 11.4778 9.83252 13.5 9.83252C15.5223 9.83252 17.1675 11.4778 17.1675 13.5C17.1675 15.5223 15.5223 17.1675 13.5 17.1675Z" fill="white"/>
</svg>
