<svg width="21" height="21" viewBox="0 0 21 21" fill="none" xmlns="http://www.w3.org/2000/svg">
<g clip-path="url(#clip0)">
<path d="M5.46834 16.2147C4.06753 16.2147 2.82149 15.3178 2.36902 13.9825L2.33842 13.8819C2.23171 13.5283 2.18701 13.2309 2.18701 12.9334V6.96741L0.064241 14.0533C-0.208776 15.0956 0.413363 16.1761 1.4572 16.464L14.9877 20.0876C15.1566 20.1313 15.3255 20.1523 15.4918 20.1523C16.3632 20.1523 17.1595 19.5739 17.3827 18.7216L18.171 16.2147H5.46834Z" fill="#EAEDF6"/>
<path d="M21 2.87065V12.9335C21 14.0185 20.1162 14.9023 19.0312 14.9023H5.46831C5.38083 14.9023 5.29335 14.8935 5.21452 14.8847C4.29581 14.7711 3.57834 14.0185 3.50832 13.091C3.49951 13.0385 3.49951 12.9859 3.49951 12.9335V2.87065C3.49951 1.78564 4.38329 0.901855 5.46831 0.901855H19.0312C20.1162 0.901855 21 1.78564 21 2.87065Z" fill="#EAEDF7"/>
<path d="M9.62466 5.27695C9.62466 6.24341 8.84118 7.02705 7.87473 7.02705C6.90811 7.02705 6.12463 6.24341 6.12463 5.27695C6.12463 4.3105 6.90811 3.52686 7.87473 3.52686C8.84118 3.52686 9.62466 4.3105 9.62466 5.27695Z" fill="#FFC046"/>
<path d="M21.0001 10.4745V12.9334C21.0001 14.0184 20.1163 14.9022 19.0313 14.9022H5.46839C5.38091 14.9022 5.29343 14.8934 5.2146 14.8846L14.2274 5.87196C14.8224 5.27689 15.8023 5.27689 16.3974 5.87196L21.0001 10.4745Z" fill="#58A75B"/>
<path d="M15.8024 14.9022H5.46841C5.38093 14.9022 5.29345 14.8934 5.21462 14.8846C4.29591 14.771 3.57844 14.0184 3.50842 13.0909L7.66472 8.93446C8.25978 8.33956 9.2397 8.33956 9.83476 8.93446L15.8024 14.9022Z" fill="#6BCB6E"/>
</g>
<defs>
<clipPath id="clip0">
<rect width="21" height="21" fill="white"/>
</clipPath>
</defs>
</svg>
