<svg width="32" height="30" viewBox="0 0 32 30" fill="none" xmlns="http://www.w3.org/2000/svg">
<path d="M8.33271 23.7082C6.19814 23.7082 4.29941 22.3415 3.60994 20.3068L3.56331 20.1535C3.40071 19.6146 3.33259 19.1615 3.33259 18.7081V9.61707L0.0978911 20.4147C-0.318135 22.0029 0.629887 23.6494 2.2205 24.0881L22.8384 29.6097C23.0958 29.6764 23.3531 29.7084 23.6065 29.7084C24.9344 29.7084 26.1478 28.827 26.4879 27.5281L27.6891 23.7082H8.33271Z" fill="#34477B"/>
<path d="M32 3.37422V18.7081C32 20.3615 30.6533 21.7082 29 21.7082H8.33271C8.19941 21.7082 8.06611 21.6947 7.94599 21.6813C6.54605 21.5082 5.45276 20.3615 5.34607 18.9481C5.33264 18.868 5.33264 18.7879 5.33264 18.7081V3.37422C5.33264 1.72086 6.67935 0.374146 8.33271 0.374146H29C30.6533 0.374146 32 1.72086 32 3.37422V3.37422Z" fill="#34477B"/>
<path d="M14.6661 7.04108C14.6661 8.51377 13.4723 9.70789 11.9996 9.70789C10.5266 9.70789 9.33276 8.51377 9.33276 7.04108C9.33276 5.56839 10.5266 4.37427 11.9996 4.37427C13.4723 4.37427 14.6661 5.56839 14.6661 7.04108Z" fill="#FFC046"/>
<path d="M32.0001 14.9611V18.708C32.0001 20.3614 30.6534 21.7081 29 21.7081H8.33277C8.19947 21.7081 8.06617 21.6947 7.94604 21.6813L21.6798 7.94777C22.5865 7.04101 24.0797 7.04101 24.9865 7.94777L32.0001 14.9611Z" fill="#58A75B"/>
<path d="M24.0797 21.7082H8.33272C8.19941 21.7082 8.06611 21.6948 7.94599 21.6813C6.54605 21.5082 5.45276 20.3615 5.34607 18.9481L11.6795 12.6145C12.5862 11.7079 14.0794 11.7079 14.9862 12.6145L24.0797 21.7082Z" fill="#6BCB6E"/>
</svg>
