<svg width="32" height="32" viewBox="0 0 32 32" fill="none" xmlns="http://www.w3.org/2000/svg">
<g clip-path="url(#clip0)">
<path d="M8.33271 24.7082C6.19814 24.7082 4.29941 23.3415 3.60994 21.3068L3.56331 21.1535C3.40071 20.6146 3.33259 20.1615 3.33259 19.7081V10.6171L0.0978911 21.4147C-0.318135 23.0029 0.629887 24.6494 2.2205 25.0881L22.8384 30.6097C23.0958 30.6764 23.3531 30.7084 23.6065 30.7084C24.9344 30.7084 26.1478 29.827 26.4879 28.5281L27.6891 24.7082H8.33271Z" fill="#D7DBE8"/>
<path d="M31.9999 4.37422V19.7081C31.9999 21.3615 30.6532 22.7082 28.9998 22.7082H8.33259C8.19929 22.7082 8.06598 22.6947 7.94586 22.6813C6.54593 22.5082 5.45264 21.3615 5.34595 19.9481C5.33252 19.868 5.33252 19.7879 5.33252 19.7081V4.37422C5.33252 2.72086 6.67923 1.37415 8.33259 1.37415H28.9998C30.6532 1.37415 31.9999 2.72086 31.9999 4.37422V4.37422Z" fill="#D7DBE8"/>
<path d="M14.6661 8.04108C14.6661 9.51377 13.4723 10.7079 11.9996 10.7079C10.5266 10.7079 9.33276 9.51377 9.33276 8.04108C9.33276 6.56839 10.5266 5.37427 11.9996 5.37427C13.4723 5.37427 14.6661 6.56839 14.6661 8.04108Z" fill="#FFC046"/>
<path d="M32.0001 15.9611V19.708C32.0001 21.3614 30.6534 22.7081 29 22.7081H8.33277C8.19947 22.7081 8.06617 22.6947 7.94604 22.6813L21.6798 8.94777C22.5865 8.04101 24.0797 8.04101 24.9865 8.94777L32.0001 15.9611Z" fill="#58A75B"/>
<path d="M24.0798 22.7082H8.33284C8.19953 22.7082 8.06623 22.6948 7.94611 22.6813C6.54617 22.5082 5.45288 21.3615 5.34619 19.9481L11.6796 13.6145C12.5864 12.7079 14.0796 12.7079 14.9863 13.6145L24.0798 22.7082Z" fill="#6BCB6E"/>
</g>
<defs>
<clipPath id="clip0">
<rect width="32" height="32" fill="white"/>
</clipPath>
</defs>
</svg>
