<svg width="40" height="41" viewBox="0 0 40 41" fill="none" xmlns="http://www.w3.org/2000/svg">
<path d="M39 40.2644H1L1.99997 37.2967H38L39 40.2644Z" stroke="#2D3748" stroke-width="1.4" stroke-linecap="round" stroke-linejoin="round"/>
<path d="M5.29028 37.2967V36.2804C5.29028 35.4976 5.50187 34.7469 5.87849 34.1934C6.25511 33.6399 6.76592 33.3289 7.29854 33.3289H12.5736C13.1004 33.3418 13.6026 33.6585 13.972 34.2106C14.3414 34.7627 14.5484 35.506 14.5483 36.2804V37.2967" stroke="#2D3748" stroke-width="1.4" stroke-linecap="round" stroke-linejoin="round"/>
<path d="M14.5483 36.6354V31.1102C14.5483 30.6464 14.7902 30.2015 15.2206 29.8735C15.651 29.5455 16.2348 29.3612 16.8435 29.3612H22.8721C23.4741 29.3689 24.0481 29.5565 24.4703 29.8837C24.8925 30.2109 25.1291 30.6514 25.129 31.1102V36.6354" stroke="#2D3748" stroke-width="1.4" stroke-linecap="round" stroke-linejoin="round"/>
<path d="M25.1289 37.2967V34.6299C25.1289 33.9341 25.3405 33.2668 25.7171 32.7748C26.0937 32.2828 26.6045 32.0063 27.1372 32.0063H32.4122C32.939 32.0178 33.4412 32.2993 33.8106 32.79C34.1801 33.2808 34.387 33.9416 34.387 34.6299V37.2967" stroke="#2D3748" stroke-width="1.4" stroke-linecap="round" stroke-linejoin="round"/>
<path d="M20.9966 16.7333C20.5665 16.8116 20.1299 16.8491 19.6927 16.8456C18.3487 16.847 17.0274 16.5167 15.8449 15.8871C13.4998 14.4277 12.0166 12.23 11.7452 9.1682C11.7097 8.76692 11.717 7.40191 11.7284 6.37974C11.7331 5.97965 11.994 5.17948 13 5.17948L26.7131 5.17944C27.0293 5.18395 27.3311 5.31213 27.5538 5.5365C27.7766 5.76087 27.9026 6.06358 27.9048 6.37974V9.04801C27.8374 10.0852 27.5706 11.0996 27.119 12.0358C26.9938 12.3341 26.8466 12.6228 26.6786 12.8993C26.6143 13.019 26.5422 13.1344 26.4627 13.2447C26.4452 13.2826 26.4219 13.3175 26.3936 13.3483C26.3159 13.4606 26.2296 13.5815 26.1432 13.6937C26.0569 13.806 25.9705 13.901 25.8842 14.0132L25.8151 14.091L25.5042 14.4277L25.3661 14.5659C25.2864 14.6421 25.2028 14.7142 25.1156 14.7818C24.9677 14.9201 24.812 15.0498 24.6493 15.1704L24.4853 15.2912L24.4248 15.3431L24.1226 15.5589C23.9511 15.6794 23.7723 15.789 23.5872 15.8871H23.5354L23.4404 15.9389L23.2504 16.0339C23.0706 16.1241 22.8861 16.2049 22.6978 16.2757C22.635 16.3097 22.5683 16.3358 22.4992 16.3534C22.0145 16.537 21.5104 16.6645 20.9966 16.7333Z" stroke="#2D3748" stroke-width="1.5" stroke-linecap="round" stroke-linejoin="round"/>
<path d="M23.8063 29.0387C23.8063 27.6356 24.0101 27.3481 23.142 26.356C22.2739 25.3638 21.0965 24.8065 19.8688 24.8065C18.6411 24.8065 17.4637 25.3638 16.5956 26.356C15.7275 27.3481 15.8706 27.6356 15.8706 29.0387H23.8063Z" stroke="#2D3748" stroke-width="1.4" stroke-linecap="round" stroke-linejoin="round"/>
<path d="M23.0001 18.1927C23.0001 18.3777 22.9617 18.5607 22.8874 18.7301C22.8131 18.8996 22.7044 19.0517 22.5684 19.1771L22.4302 19.2893C22.203 19.4419 21.9353 19.5231 21.6617 19.5225H17.7586C17.399 19.5225 17.0542 19.3797 16.7999 19.1254C16.5457 18.8712 16.4028 18.5263 16.4028 18.1668C16.4028 17.8072 16.5457 17.4624 16.7999 17.2081C17.0542 16.9539 17.399 16.811 17.7586 16.811H19.7015" stroke="#2D3748" stroke-width="1.5" stroke-linecap="round" stroke-linejoin="round"/>
<path d="M18.3457 24.453V19.5482" stroke="#2D3748" stroke-width="1.5" stroke-linecap="round" stroke-linejoin="round"/>
<path d="M21.0647 24.453V19.5482" stroke="#2D3748" stroke-width="1.5" stroke-linecap="round" stroke-linejoin="round"/>
<path d="M30.0979 1.6217L28.4141 3.30556" stroke="#2D3748" stroke-width="1.3" stroke-linecap="round" stroke-linejoin="round"/>
<path d="M19.5112 1V2.87384" stroke="#2D3748" stroke-width="1.3" stroke-linecap="round" stroke-linejoin="round"/>
<path d="M8.99365 1.94122L10.5134 3.46102" stroke="#2D3748" stroke-width="1.3" stroke-linecap="round" stroke-linejoin="round"/>
</svg>
