<svg width="25" height="25" viewBox="0 0 25 25" fill="none" xmlns="http://www.w3.org/2000/svg">
<path d="M4.6182 1L10.2364 3.22928M4.6182 1V20.7707M4.6182 1L1 3.24245V23.0132L4.6182 20.7707M10.2364 3.22928V23M10.2364 3.22928L17.3818 1M10.2364 23L4.6182 20.7707M10.2364 23L13.5 21.5M17.3818 1L24 2.92641V22.6971L19 21.5M17.3818 1V13.5" stroke="white" stroke-width="1.2" stroke-linecap="round" stroke-linejoin="round"/>
<path d="M20.2929 17.3714C20.2929 17.8781 20.0909 18.5716 19.7374 19.3622C19.3891 20.141 18.9146 20.9689 18.4165 21.729C17.9184 22.489 17.4037 23.1706 16.9801 23.6575C16.7673 23.9021 16.5851 24.0888 16.4448 24.2105C16.4054 24.2447 16.3724 24.2711 16.3455 24.2909C16.3106 24.2701 16.2661 24.2396 16.2117 24.1968C16.0614 24.0784 15.8728 23.8955 15.6565 23.6532C15.2259 23.1707 14.7211 22.493 14.2387 21.7343C13.7567 20.9761 13.3047 20.149 12.9748 19.3703C12.6405 18.5812 12.45 17.8839 12.45 17.3714C12.45 15.2057 14.2057 13.45 16.3714 13.45C18.5372 13.45 20.2929 15.2057 20.2929 17.3714ZM16.2732 24.3371C16.2733 24.3369 16.2754 24.3358 16.2795 24.3342C16.2752 24.3364 16.2731 24.3372 16.2732 24.3371Z" stroke="white" stroke-width="0.9" stroke-linecap="round" stroke-linejoin="round"/>
<circle cx="16.3714" cy="17.3714" r="1.95385" stroke="white" stroke-width="0.8" stroke-linecap="round" stroke-linejoin="round"/>
</svg>
