<svg width="909" height="795" viewBox="0 0 909 795" fill="none" xmlns="http://www.w3.org/2000/svg">
<path d="M706.985 513.094C948.39 517.434 824.809 313.202 650.891 175.686C476.973 38.1696 124.358 -45.2126 124.357 255.788C124.355 556.788 243.917 749.809 389.532 645.564C535.148 541.32 465.579 508.753 706.985 513.094Z" fill="url(#paint0_linear)" fill-opacity="0.4"/>
<path d="M493.714 615.38C745.968 419.607 776.314 152.753 776.59 150.089L770.565 149.45C770.294 152.1 740.134 416.484 490 610.586L493.714 615.38Z" fill="#B094EC"/>
<path d="M773.357 158.006C773.357 158.006 786.139 143.128 787.385 123.838C787.85 116.861 783.372 104.443 776.872 104.015C770.384 103.588 764.544 112.131 763.865 122.294C762.617 141.591 773.357 158.006 773.357 158.006Z" fill="#B094EC"/>
<path d="M765.786 190.666C765.786 190.666 767.262 173.232 758.306 158.119C755.063 152.644 745.543 145.503 740.719 148.371C735.895 151.223 736.108 160.513 740.827 168.486C749.782 183.593 765.786 190.666 765.786 190.666Z" fill="#B094EC"/>
<path d="M748.082 244.836C748.082 244.836 748.466 228.759 738.903 217.362C735.427 213.238 725.801 209.18 721.288 212.954C716.814 216.736 717.565 225.05 722.607 231.047C732.176 242.445 748.082 244.836 748.082 244.836Z" fill="#B094EC"/>
<path d="M764.375 188.244C764.375 188.244 779.07 194.512 793.114 189.868C798.209 188.173 805.488 180.78 803.656 175.253C801.822 169.717 793.863 167.35 786.469 169.805C772.432 174.453 764.375 188.244 764.375 188.244Z" fill="#B094EC"/>
<path d="M604.796 507.111C604.796 507.111 616.836 518.191 632.893 519.773C638.718 520.339 649.181 516.922 649.702 511.498C650.236 506.082 643.274 500.96 634.815 500.137C618.765 498.565 604.796 507.111 604.796 507.111Z" fill="#B094EC"/>
<path d="M751.526 245.796C751.526 245.796 768.893 251.623 786.052 245.939C792.271 243.884 801.455 235.653 799.546 229.878C797.624 224.138 788.185 222.066 779.141 225.067C761.979 230.753 751.526 245.796 751.526 245.796Z" fill="#B094EC"/>
<path d="M732.118 303.433C732.118 303.433 748.359 311.764 763.355 306.789C768.789 304.992 776.354 296.367 774.098 289.536C771.839 282.716 763.098 279.488 755.194 282.091C740.19 287.061 732.118 303.433 732.118 303.433Z" fill="#B094EC"/>
<path d="M728.307 300.751C728.307 300.751 732.085 283.161 723.761 269.218C720.748 264.177 710.825 258.275 705.013 261.76C699.188 265.242 698.3 274.471 702.689 281.812C711.022 295.745 728.307 300.751 728.307 300.751Z" fill="#B094EC"/>
<path d="M677.108 407.293C677.108 407.293 676.448 395.5 666.09 384.072C662.341 379.939 652.402 373.897 648.139 375.291C643.865 376.67 645.187 383.074 650.627 389.096C660.987 400.517 677.108 407.293 677.108 407.293Z" fill="#B094EC"/>
<path d="M705.778 360.235C705.778 360.235 716.326 363.664 728.982 358.168C733.563 356.166 741.35 349.208 741.2 344.864C741.037 340.503 735.076 339.503 728.401 342.404C715.762 347.894 705.778 360.235 705.778 360.235Z" fill="#B094EC"/>
<path d="M638.47 460.878C638.47 460.878 648.583 444.73 648.442 430.61C648.405 425.499 643.756 418.785 638.114 421.394C632.485 424 627.958 432.62 628.03 440.049C628.156 454.154 638.47 460.878 638.47 460.878Z" fill="#B094EC"/>
<path d="M674.761 408.465C674.761 408.465 695.037 417.654 712.975 416.236C719.485 415.709 728.135 410.191 724.975 404.483C721.818 398.776 710.997 394.811 701.54 395.557C683.589 396.985 674.761 408.465 674.761 408.465Z" fill="#B094EC"/>
<path d="M638.995 464.388C638.995 464.388 658.223 473.054 674.385 471.141C680.237 470.46 687.604 464.709 684.224 459.061C680.832 453.431 670.643 449.738 662.141 450.741C645.97 452.646 638.995 464.388 638.995 464.388Z" fill="#B094EC"/>
<path d="M702.272 362.639C702.272 362.639 705.059 347.884 697.825 330.454C695.208 324.145 686.805 313.512 682.032 313.875C677.241 314.23 676.7 322.547 680.518 331.722C687.75 349.15 702.272 362.639 702.272 362.639Z" fill="#B094EC"/>
<path d="M302.415 418.585C291.081 410.276 275.219 397.191 259.45 378.333C234.908 348.987 221.045 310.613 219.73 300.142C219.168 295.674 248.033 302.38 259.346 319.777C260.622 321.74 297.839 349.672 306.816 382.665C310.489 396.168 307.905 404.45 311.291 416.204C311.619 417.344 312.606 420.606 311.244 421.724C309.518 423.141 304.965 420.334 302.415 418.585Z" fill="#94A7EC"/>
<path d="M356.54 372.415C356.54 372.415 358.607 402.427 358.157 405.923C357.708 409.417 363.134 459.782 369.024 470.561C374.914 481.341 395.397 500.864 395.397 500.864C395.397 500.864 404.835 492.542 397.994 456.599C391.153 420.656 380.837 386.96 356.54 372.415Z" fill="#94A7EC"/>
<path d="M421.556 489.24C421.556 489.24 421.241 453.436 433.192 441.096C445.142 428.755 466.333 406.301 472.269 401.978C472.598 401.737 472.878 401.659 473.109 401.728C476.324 402.689 468.528 437.986 452.187 466.716C452.187 466.717 449.218 471.936 426.054 494.636C425.367 495.309 423.67 496.94 422.515 496.461C420.88 495.782 421.301 491.27 421.556 489.24Z" fill="#94A7EC"/>
<path d="M208.87 513.292C208.87 513.292 244.921 542.136 264.975 545.409C285.029 548.681 322.388 547.059 322.388 547.059C322.388 547.059 313.687 534.298 303.798 525.699C293.909 517.099 245.814 499.128 208.87 513.292Z" fill="#94A7EC"/>
<path d="M341.719 576.076C341.719 576.076 314.839 577.092 297.017 610.982C279.195 644.871 283.709 658.594 283.709 658.594C283.709 658.594 307.325 647.089 324.65 622.963C341.975 598.836 341.719 576.076 341.719 576.076Z" fill="#94A7EC"/>
<path d="M287.363 568.809C272.537 568.08 234.026 568.231 196.402 593.096C175.353 607.007 162.2 623.617 154.676 635.014C154.676 635.014 171.271 637.908 202.262 629.185C227.314 622.134 247.124 619.453 264.228 603.933C277.48 591.908 284.048 577.897 287.363 568.809Z" fill="#94A7EC"/>
<path d="M114.041 358.201C114.954 354.421 152.666 360.172 181.208 366.482C224.297 376.01 236.929 384.701 242.381 388.845C255.444 398.776 270.73 415.639 266.802 422.597C263.05 429.243 243.099 424.503 230.703 421.557C178.95 409.26 159.938 383.256 119.201 362.183C117.258 361.177 113.751 359.4 114.041 358.201Z" fill="#94A7EC"/>
<path d="M122.769 470.523C120.754 466.371 144.341 447.331 170.612 437.879C202.095 426.552 238.678 428.55 240.542 436.457C241.565 440.793 232.014 446.349 222.103 452.113C201.044 464.363 189.414 463.159 130.259 471.043C127.134 471.459 123.464 471.956 122.769 470.523Z" fill="#94A7EC"/>
<path d="M424.211 530.184C433.958 516.655 444.702 510.872 450.932 508.288C478.763 496.743 515.067 508.154 542.145 537.095C533.701 537.892 525.257 538.689 516.812 539.487C450.163 533.885 423.781 532.959 421.3 534.697C421.2 534.768 419.958 535.668 424.211 530.184Z" fill="#94A7EC"/>
<path d="M345.254 493.881L319.726 445.54L306.962 421.369L300.58 409.284L297.389 403.242C296.314 401.236 295.291 399.192 294.159 397.23C291.805 393.341 289.142 389.637 286.447 385.97C283.74 382.308 280.963 378.697 278.163 375.104C272.559 367.922 266.845 360.825 261.119 353.738L243.937 332.48C241.086 328.927 238.25 325.361 235.459 321.761C234.068 319.957 232.682 318.149 231.338 316.31C229.993 314.472 228.656 312.622 227.522 310.645C228.661 312.619 230.003 314.465 231.352 316.299C232.702 318.134 234.092 319.938 235.488 321.738C238.288 325.331 241.134 328.888 243.994 332.434L261.234 353.645C266.979 360.717 272.712 367.799 278.337 374.969C281.147 378.555 283.934 382.16 286.653 385.817C289.361 389.481 292.035 393.178 294.411 397.08C295.561 399.061 296.582 401.091 297.664 403.097L300.869 409.132L307.28 421.203L320.101 445.342L345.742 493.622L345.254 493.881Z" fill="#94A7EC"/>
<path d="M412.82 564.832L388.006 474.35C383.9 459.262 379.764 444.178 376.119 428.969C375.22 425.164 374.354 421.351 373.562 417.522C372.792 413.69 372.049 409.844 371.66 405.95C371.427 404.002 371.579 402.037 371.452 400.092C371.354 398.14 370.965 396.212 370.445 394.332C369.912 392.454 369.184 390.629 368.278 388.899C367.363 387.175 366.31 385.512 365.023 384.039C366.314 385.508 367.374 387.168 368.293 388.891C369.205 390.62 369.938 392.444 370.478 394.323C371.004 396.203 371.4 398.132 371.504 400.088C371.636 402.042 371.49 404.001 371.729 405.943C372.128 409.831 372.882 413.673 373.663 417.501C374.466 421.326 375.343 425.135 376.253 428.936C379.942 444.132 384.122 459.202 388.272 474.277L413.352 564.684L412.82 564.832Z" fill="#94A7EC"/>
<path d="M404.806 531.542C407.328 528.862 409.605 525.919 411.646 522.844C412.662 521.299 413.595 519.704 414.464 518.074L415.078 516.834C415.288 516.422 415.485 516.005 415.662 515.579L416.215 514.31L416.699 513.015C419.119 506.011 421.448 498.957 423.925 491.963C425.156 488.463 426.42 484.974 427.726 481.501C429.036 478.029 430.383 474.569 431.882 471.172C432.269 470.329 432.652 469.482 433.052 468.645C433.476 467.819 433.884 466.984 434.33 466.17L436.954 461.264L442.203 451.45L437.015 461.296L434.421 466.22C433.98 467.036 433.579 467.871 433.161 468.698C432.766 469.536 432.389 470.383 432.009 471.228C430.533 474.629 429.208 478.095 427.92 481.573C426.637 485.053 425.395 488.548 424.186 492.055C421.753 499.065 419.472 506.118 417.089 513.154L416.607 514.468L416.057 515.754C415.88 516.185 415.685 516.608 415.475 517.025L414.863 518.281C413.997 519.931 413.065 521.546 412.051 523.108C410.009 526.224 407.748 529.188 405.202 531.927L404.806 531.542Z" fill="#94A7EC"/>
<path d="M408.301 541.057C412.803 538.044 417.394 535.183 422.058 532.439C426.733 529.716 431.488 527.118 436.409 524.862C437.628 524.272 438.895 523.788 440.14 523.257C440.764 522.996 441.41 522.789 442.045 522.552C442.683 522.325 443.314 522.078 443.972 521.91L445.927 521.354L447.906 520.902C449.228 520.618 450.552 520.34 451.885 520.107C454.546 519.625 457.226 519.244 459.917 518.981C462.608 518.72 465.313 518.562 468.016 518.632C465.313 518.586 462.61 518.767 459.924 519.05C457.237 519.336 454.563 519.739 451.91 520.242C450.581 520.487 449.262 520.776 447.944 521.071L445.972 521.538L444.033 522.108C443.381 522.28 442.754 522.531 442.12 522.764C441.491 523.004 440.85 523.216 440.23 523.481C438.993 524.022 437.736 524.513 436.525 525.112C431.636 527.405 426.912 530.038 422.269 532.796C417.637 535.574 413.073 538.474 408.614 541.513L408.301 541.057Z" fill="#94A7EC"/>
<path d="M368.041 556.595C366.959 556.605 365.813 556.746 364.698 556.851C363.576 556.972 362.454 557.096 361.333 557.235C359.09 557.504 356.849 557.799 354.609 558.098C350.128 558.699 345.652 559.339 341.179 559.997C332.234 561.318 323.302 562.726 314.382 564.215C305.463 565.704 296.559 567.285 287.676 568.98C278.8 570.697 269.937 572.505 261.156 574.652C256.77 575.738 252.395 576.89 248.107 578.308C243.815 579.709 239.711 581.631 235.629 583.565C227.483 587.487 219.522 591.785 211.614 596.17C195.821 604.985 180.26 614.214 164.849 623.684C180.232 614.171 195.768 604.898 211.54 596.038C219.437 591.629 227.387 587.307 235.53 583.358C239.61 581.411 243.713 579.474 248.023 578.057C252.32 576.624 256.696 575.461 261.084 574.363C269.869 572.194 278.732 570.364 287.608 568.625C296.49 566.909 305.393 565.306 314.312 563.796C323.23 562.286 332.162 560.856 341.108 559.513C345.581 558.845 350.057 558.195 354.539 557.582C356.78 557.277 359.022 556.977 361.268 556.703C362.39 556.561 363.515 556.433 364.641 556.309C365.776 556.201 366.878 556.056 368.059 556.042L368.041 556.595Z" fill="#94A7EC"/>
<path d="M413.158 566.589C381.303 559.165 349.446 551.747 317.564 544.442L305.602 541.731L299.615 540.406L296.612 539.783C295.606 539.543 294.638 539.22 293.663 538.906C289.779 537.616 285.941 536.208 282.102 534.8L270.612 530.505C255.316 524.715 240.068 518.8 224.838 512.841C240.085 518.756 255.35 524.626 270.662 530.371L282.163 534.631C286.005 536.028 289.849 537.425 293.73 538.702C294.701 539.012 295.676 539.332 296.66 539.564L299.664 540.178L305.656 541.487L317.627 544.166C349.53 551.383 381.407 558.714 413.282 566.051L413.158 566.589Z" fill="#94A7EC"/>
<path d="M372.338 557.338C363.183 562.032 354.209 567.115 345.515 572.625C341.175 575.392 336.907 578.277 332.801 581.378C328.714 584.492 324.723 587.785 321.314 591.632C320.468 592.596 319.665 593.599 318.942 594.657C318.224 595.713 317.598 596.845 316.923 597.941C315.589 600.146 314.232 602.336 312.874 604.525C310.158 608.902 307.434 613.274 304.832 617.719C302.237 622.166 299.739 626.68 297.631 631.38C296.583 633.73 295.636 636.131 294.916 638.604C294.206 641.071 293.701 643.637 293.846 646.217C293.689 643.638 294.182 641.067 294.882 638.594C295.59 636.116 296.527 633.708 297.565 631.351C299.654 626.636 302.131 622.108 304.707 617.646C307.289 613.187 309.994 608.801 312.69 604.411C314.038 602.216 315.384 600.021 316.706 597.811C317.377 596.712 317.992 595.583 318.719 594.505C319.444 593.433 320.25 592.418 321.098 591.443C324.515 587.555 328.503 584.237 332.587 581.096C336.69 577.97 340.953 575.061 345.288 572.272C353.976 566.714 362.93 561.591 372.09 556.845L372.338 557.338Z" fill="#94A7EC"/>
<path d="M289.798 439.652C276.803 438.933 263.781 438.577 250.763 438.531C237.746 438.506 224.718 438.791 211.739 439.814C205.253 440.34 198.776 441.056 192.368 442.184C190.761 442.442 189.174 442.799 187.58 443.124C186.782 443.281 185.999 443.502 185.207 443.689C184.419 443.886 183.624 444.063 182.849 444.31C179.695 445.124 176.701 446.417 173.683 447.633C167.663 450.111 161.713 452.764 155.895 455.687C152.997 457.17 150.122 458.699 147.314 460.347C145.915 461.178 144.524 462.023 143.165 462.921C141.805 463.813 140.461 464.738 139.205 465.774C140.457 464.733 141.798 463.804 143.155 462.907C144.511 462.004 145.9 461.154 147.296 460.318C150.099 458.659 152.97 457.12 155.864 455.626C161.674 452.681 167.616 450.005 173.629 447.505C176.641 446.28 179.642 444.972 182.802 444.144C183.578 443.894 184.373 443.714 185.164 443.513C185.955 443.324 186.74 443.099 187.538 442.938C189.134 442.607 190.723 442.245 192.331 441.98C198.746 440.828 205.227 440.088 211.716 439.539C224.704 438.469 237.738 438.138 250.763 438.116C263.791 438.117 276.816 438.426 289.831 439.1L289.798 439.652Z" fill="#94A7EC"/>
<path d="M413.595 566.004C395.001 545.274 376.046 524.855 356.744 504.777C347.088 494.743 337.327 484.807 327.415 475.027C317.5 465.25 307.433 455.623 297.056 446.341C291.859 441.711 286.589 437.16 281.155 432.813C275.715 428.484 270.15 424.268 264.143 420.776C263.392 420.34 262.621 419.943 261.86 419.526C261.075 419.161 260.313 418.74 259.51 418.421C257.926 417.736 256.279 417.132 254.668 416.484L244.946 412.657L225.505 405.004L147.738 374.391L225.604 404.746L245.07 412.335L254.803 416.129C256.424 416.775 258.05 417.364 259.666 418.056C260.482 418.378 261.25 418.798 262.045 419.165C262.813 419.582 263.592 419.98 264.348 420.416C270.402 423.91 275.991 428.115 281.456 432.435C286.915 436.771 292.206 441.31 297.423 445.928C307.841 455.185 317.946 464.785 327.899 474.534C337.849 484.287 347.646 494.195 357.34 504.201C376.717 524.225 395.741 544.583 414.419 565.268L413.595 566.004Z" fill="#94A7EC"/>
<path d="M700.803 199.739L700.085 209.381C699.979 210.69 697.476 241.865 679.016 278.299C663.176 309.548 632.349 350.248 574.15 373.122C569.609 374.918 564.895 376.593 560.009 378.149L554.56 361.041C568.241 356.736 581.419 350.972 593.867 343.848C623.531 326.719 646.596 302.271 662.679 270.811C671.213 254.062 677.294 236.172 680.738 217.692H614.523V199.739H700.803Z" fill="url(#paint1_linear)"/>
<path opacity="0.1" d="M567.022 373.133C625.211 350.259 656.048 309.569 671.878 278.32C690.338 241.886 692.852 210.732 692.947 209.402L693.665 199.76H701.057L700.339 209.402C700.244 210.711 697.731 241.886 679.271 278.32C663.43 309.569 632.604 350.259 574.415 373.133C569.874 374.928 565.157 376.607 560.264 378.17L559.545 375.921C562.094 375.013 564.586 374.083 567.022 373.133Z" fill="white"/>
<path d="M450.517 361.041L445.068 378.149C440.175 376.586 435.458 374.907 430.917 373.112C372.728 350.238 341.891 309.548 326.061 278.299C307.601 241.865 305.088 210.711 304.993 209.381L304.274 199.739H390.512V217.692H324.287C327.748 236.174 333.848 254.064 342.398 270.811C358.482 302.271 381.536 326.719 411.2 343.838C423.65 350.969 436.831 356.736 450.517 361.041V361.041Z" fill="url(#paint2_linear)"/>
<path opacity="0.1" d="M438.035 373.133C379.846 350.259 349.009 309.569 333.179 278.32C314.719 241.886 312.206 210.732 312.111 209.402L311.392 199.76H304L304.718 209.402C304.813 210.711 307.327 241.886 325.786 278.32C341.627 309.569 372.454 350.259 430.642 373.133C435.183 374.928 439.901 376.607 444.794 378.17L445.512 375.921C442.97 375.013 440.478 374.083 438.035 373.133Z" fill="white"/>
<path d="M602.157 526.42V623.229H402.911V526.42L409.247 517.971C473.814 495.055 486.899 435.292 489.507 411.647C489.896 408.38 490.118 405.095 490.173 401.805H514.811C514.866 405.095 515.088 408.38 515.476 411.647C518.127 435.292 531.211 495.076 595.736 517.971L602.157 526.42Z" fill="url(#paint3_linear)"/>
<path opacity="0.1" d="M602.157 526.42H402.911V538.564H602.157V526.42Z" fill="#F9A21E"/>
<path opacity="0.1" d="M419.808 517.971C484.375 495.055 497.459 435.292 500.068 411.647C500.456 408.38 500.678 405.095 500.733 401.805H490.173C490.118 405.095 489.896 408.38 489.507 411.647C486.857 435.292 473.772 495.076 409.247 517.971L402.911 526.42V623.229H413.471V526.42L419.808 517.971Z" fill="white"/>
<path opacity="0.1" d="M372.644 199.739H390.512V217.692H374.228C373.587 211.778 373.059 205.794 372.644 199.739Z" fill="#F9A21E"/>
<path opacity="0.1" d="M450.517 361.041L445.068 378.149C440.174 376.586 435.457 374.907 430.916 373.112C423.446 363.989 416.845 354.189 411.2 343.838C423.649 350.969 436.831 356.736 450.517 361.041Z" fill="#F9A21E"/>
<path opacity="0.1" d="M554.55 361.041C568.23 356.736 581.408 350.972 593.856 343.848C588.207 354.201 581.607 364.005 574.14 373.133C569.599 374.928 564.885 376.604 559.999 378.16L554.55 361.041Z" fill="#F9A21E"/>
<path opacity="0.1" d="M632.413 199.739C631.998 205.794 631.47 211.778 630.829 217.692H614.555V199.739H632.413Z" fill="#F9A21E"/>
<path opacity="0.1" d="M515.518 411.647C506.941 413.309 498.126 413.309 489.549 411.647C489.938 408.38 490.16 405.095 490.215 401.805H514.852C514.907 405.095 515.13 408.38 515.518 411.647V411.647Z" fill="#F9A21E"/>
<path d="M374.756 170C375.21 303.127 432.237 410.781 502.539 410.781C572.841 410.781 629.857 303.127 630.322 170H374.756Z" fill="url(#paint4_linear)"/>
<path opacity="0.1" d="M397.461 170H374.756C375.21 303.127 432.237 410.781 502.539 410.781C506.343 410.774 510.14 410.453 513.891 409.82C448.902 398.964 397.894 295.882 397.461 170Z" fill="white"/>
<path d="M570.296 563.477H434.772V598.327H570.296V563.477Z" fill="#3F3D56"/>
<path opacity="0.1" d="M441.108 568.229H570.296V563.477H434.772V598.327H441.108V568.229Z" fill="white"/>
<defs>
<linearGradient id="paint0_linear" x1="833.5" y1="582" x2="71.7415" y2="66.8823" gradientUnits="userSpaceOnUse">
<stop stop-color="#9878F0"/>
<stop offset="1" stop-color="#7D98F9"/>
</linearGradient>
<linearGradient id="paint1_linear" x1="627.682" y1="199.739" x2="627.682" y2="378.149" gradientUnits="userSpaceOnUse">
<stop stop-color="#5B76DE"/>
<stop offset="1" stop-color="#7B58DB"/>
</linearGradient>
<linearGradient id="paint2_linear" x1="377.396" y1="199.739" x2="377.396" y2="378.149" gradientUnits="userSpaceOnUse">
<stop stop-color="#5B76DE"/>
<stop offset="1" stop-color="#7B58DB"/>
</linearGradient>
<linearGradient id="paint3_linear" x1="502.534" y1="401.805" x2="502.534" y2="623.229" gradientUnits="userSpaceOnUse">
<stop stop-color="#5B76DE"/>
<stop offset="1" stop-color="#7B58DB"/>
</linearGradient>
<linearGradient id="paint4_linear" x1="502.539" y1="170" x2="502.539" y2="410.781" gradientUnits="userSpaceOnUse">
<stop stop-color="#5B76DE"/>
<stop offset="1" stop-color="#7B58DB"/>
</linearGradient>
</defs>
</svg>
