<svg width="672" height="580" viewBox="0 0 672 580" fill="none" xmlns="http://www.w3.org/2000/svg">
<path d="M612.893 228.337C642.893 391.337 758.892 379.013 545.892 530.837C332.892 682.661 -25.1089 446.837 1.39241 261.337C27.8937 75.8371 167.892 -14.2717 319.392 1.83701C470.892 17.9458 582.893 65.3372 612.893 228.337Z" fill="url(#paint0_linear)" fill-opacity="0.4"/>
<mask id="mask0" mask-type="alpha" maskUnits="userSpaceOnUse" x="0" y="0" width="672" height="580">
<path d="M612.893 228.337C642.893 391.337 758.892 379.013 545.892 530.837C332.892 682.661 -25.1089 446.837 1.39241 261.337C27.8937 75.8371 167.892 -14.2717 319.392 1.83701C470.892 17.9458 582.893 65.3372 612.893 228.337Z" fill="white"/>
</mask>
<g mask="url(#mask0)">
<path d="M521.921 97.337H228.863C203.474 97.337 182.892 117.943 182.892 143.363V608.312C182.892 633.731 203.474 654.337 228.863 654.337H521.921C547.31 654.337 567.892 633.731 567.892 608.312V143.363C567.892 117.943 547.31 97.337 521.921 97.337Z" fill="white"/>
<rect x="198.892" y="113.337" width="353" height="543" fill="url(#paint1_linear)"/>
<path d="M465.359 368.738C458.183 356.823 443.807 350.553 429.759 354.317C420.504 356.797 413.308 363.122 409.396 371.123C406.789 370.626 404.034 370.694 401.302 371.426C392.902 373.677 387.463 381.468 387.819 389.845C386.168 389.912 384.501 390.154 382.839 390.599C370.678 393.858 363.473 406.404 366.747 418.621C370.021 430.838 382.533 438.101 394.694 434.842L473.965 413.602C486.126 410.343 493.33 397.797 490.057 385.58C487.075 374.45 476.425 367.436 465.359 368.738Z" fill="#FFF5DF"/>
<path d="M375.973 444.601L440.806 627.147C442.404 631.648 447.175 634.168 451.767 632.938L523.583 613.695C528.175 612.464 531.047 607.896 530.181 603.199L495.055 412.693L375.973 444.601Z" fill="#C7C6C5"/>
<path d="M528.382 593.441L495.055 412.693L375.973 444.601L437.485 617.797L528.382 593.441Z" fill="#FCCE0B"/>
<path d="M482.933 605.619L528.382 593.441L495.055 412.692L435.514 428.646L482.933 605.619Z" fill="#F9A21E"/>
<path d="M495.056 412.692L491.856 395.338C490.886 390.079 485.658 386.759 480.516 388.136L376.287 416.064C371.146 417.442 368.278 422.932 370.068 427.971L375.974 444.6L495.056 412.692Z" fill="#F0D9BA"/>
<path d="M480.514 388.137L428.4 402.101L435.513 428.647L495.054 412.693L491.854 395.338C490.885 390.08 485.655 386.759 480.514 388.137Z" fill="#EEC08E"/>
<path d="M441.381 591.462C446.245 590.159 449.127 585.141 447.818 580.254C446.508 575.367 441.503 572.462 436.639 573.765C431.774 575.069 428.893 580.087 430.202 584.974C431.511 589.861 436.516 592.766 441.381 591.462Z" fill="#F9A21E"/>
<path d="M423.091 496.781C426.739 495.804 428.9 492.04 427.918 488.375C426.936 484.71 423.182 482.531 419.534 483.508C415.886 484.486 413.724 488.25 414.706 491.915C415.689 495.58 419.442 497.759 423.091 496.781Z" fill="#F9A21E"/>
<path d="M452.051 549.088C454.483 548.436 455.924 545.927 455.27 543.484C454.615 541.04 452.112 539.588 449.68 540.239C447.248 540.891 445.807 543.4 446.462 545.844C447.117 548.287 449.619 549.74 452.051 549.088Z" fill="#F9A21E"/>
<path d="M484.971 472.298C489.835 470.995 492.717 465.977 491.408 461.09C490.098 456.203 485.093 453.298 480.229 454.601C475.364 455.905 472.482 460.923 473.792 465.81C475.101 470.697 480.106 473.602 484.971 472.298Z" fill="#FCCE0B"/>
<path d="M505.236 574.352C508.884 573.374 511.045 569.611 510.063 565.945C509.081 562.28 505.327 560.101 501.679 561.079C498.031 562.057 495.869 565.82 496.851 569.486C497.834 573.151 501.587 575.33 505.236 574.352Z" fill="#FCCE0B"/>
<path d="M471.927 505.826C474.359 505.175 475.8 502.666 475.145 500.222C474.49 497.779 471.988 496.326 469.556 496.978C467.124 497.63 465.683 500.139 466.337 502.582C466.992 505.026 469.495 506.478 471.927 505.826Z" fill="#FCCE0B"/>
<path d="M428.4 402.1L442.626 455.192C443.935 460.079 448.94 462.984 453.805 461.681C458.669 460.377 461.551 455.359 460.241 450.472L455.499 432.775C454.19 427.888 457.072 422.87 461.936 421.566C466.801 420.263 471.806 423.168 473.115 428.055C474.425 432.942 479.429 435.847 484.294 434.543C489.159 433.24 492.04 428.222 490.731 423.335L481.247 387.94C479.937 383.053 474.933 380.148 470.068 381.452L434.837 390.892C429.972 392.195 427.09 397.213 428.4 402.1Z" fill="#FFF5DF"/>
<path fill-rule="evenodd" clip-rule="evenodd" d="M429.759 354.317C443.807 350.553 458.183 356.823 465.359 368.738C476.425 367.436 487.075 374.45 490.057 385.58C491.713 391.763 489.179 391.352 484.372 390.573C483.589 390.446 482.745 390.309 481.85 390.19L490.731 423.335C492.041 428.222 489.159 433.24 484.294 434.543C479.429 435.847 474.425 432.942 473.115 428.055C471.806 423.168 466.801 420.263 461.936 421.566C457.072 422.87 454.19 427.888 455.5 432.775L460.242 450.472C461.551 455.359 458.669 460.377 453.805 461.681C448.94 462.984 443.935 460.079 442.626 455.192L428.4 402.101L378.908 415.362C377.115 416.99 375.658 419.288 374.388 421.291C371.457 425.912 369.519 428.967 366.747 418.621C363.473 406.404 370.678 393.858 382.839 390.599C384.501 390.154 386.168 389.912 387.819 389.845C387.463 381.468 392.902 373.677 401.302 371.426C404.034 370.694 406.789 370.626 409.396 371.123C413.308 363.122 420.504 356.797 429.759 354.317Z" fill="#FFFCF7"/>
<path d="M389.245 422.076C384.315 423.397 381.565 428.662 383.281 433.494L449.337 619.483C450.183 621.866 452.71 623.201 455.142 622.549C457.791 621.84 459.315 619.059 458.497 616.428L399.868 427.96C398.467 423.459 393.779 420.861 389.245 422.076V422.076Z" fill="white"/>
<path fill-rule="evenodd" clip-rule="evenodd" d="M268.836 109V113.337C271.716 113.337 274.088 115.604 274.221 118.484C274.952 134.367 283.093 142.309 298.644 142.309C311.327 142.309 343.792 142.355 376.119 142.401C408.153 142.355 440.325 142.309 452.894 142.309C468.304 142.309 476.372 134.367 477.096 118.484C477.228 115.604 479.578 113.337 482.433 113.337V109.5L268.836 109ZM235.272 113.337C215.187 113.337 198.892 129.624 198.892 149.715H194.5L197.5 111.5L235.272 110.5V113.337ZM515.512 113.337H551.892V149.715C551.892 129.624 535.596 113.337 515.512 113.337Z" fill="white"/>
<rect x="340.098" y="112.337" width="70.7429" height="12.102" rx="6.05099" fill="#EAEEF8"/>
<ellipse cx="426.278" cy="118.388" rx="6.06368" ry="6.05099" fill="#EAEEF8"/>
</g>
<g clip-path="url(#clip0)">
<path d="M465.695 49.1923L577.802 19.1534C590.452 15.7639 601.629 21.2509 605.175 34.4847L623.059 101.228C629.664 125.878 617.377 140.933 604.727 144.323L551 158.719C551 158.719 530.697 196.421 518.557 199.674C514.982 200.632 510.492 169.573 510.492 169.573L498.791 172.708C486.141 176.098 474.998 163.122 470.669 146.968L451.894 76.8991C447.568 60.7537 453.045 52.5818 465.695 49.1923Z" fill="#7B57DB"/>
<mask id="mask1" mask-type="alpha" maskUnits="userSpaceOnUse" x="445" y="13" width="196" height="196">
<path d="M465.695 49.1923L577.802 19.1534C590.452 15.7639 601.629 21.2509 605.175 34.4847L623.059 101.228C629.664 125.878 617.377 140.933 604.727 144.323L551 158.719C551 158.719 530.697 196.421 518.557 199.674C514.982 200.632 510.492 169.573 510.492 169.573L498.791 172.708C486.141 176.098 474.998 163.122 470.669 146.968L451.894 76.8991C447.568 60.7537 453.045 52.5818 465.695 49.1923Z" fill="#7B57DB"/>
</mask>
<g mask="url(#mask1)">
<path d="M562.888 129.685C555.063 136.624 530.375 152.924 471.639 168.663L503.591 179.471L513.276 215.617C525.088 216.326 547.886 182.13 557.808 164.944L639.135 143.152L599.509 13.3369L590.472 15.7582C590.472 15.7582 581.533 16.8591 588.375 26.0047C618.555 66.3428 570.714 122.746 562.888 129.685Z" fill="#5735B1"/>
<path d="M515.713 79.4066C514.704 75.653 514.829 71.6846 516.074 68.0031C517.318 64.3214 519.625 61.0919 522.704 58.7227C525.783 56.3536 529.495 54.9511 533.371 54.6925C537.247 54.434 541.113 55.331 544.48 57.2703C547.847 59.2096 550.565 62.104 552.288 65.5876C554.012 69.0713 554.666 72.9877 554.165 76.842C553.666 80.6961 552.034 84.3152 549.478 87.2414C547.728 89.2452 543.898 93.9814 543.898 93.9814C543.898 93.9814 542.103 97.3207 541.672 100.384C541.32 102.877 541.561 107.922 542.477 112.879M547.562 131.854L546.926 129.482" stroke="white" stroke-width="8" stroke-linecap="round" stroke-linejoin="round"/>
<path d="M568.381 93.5162C568.895 91.592 569.967 89.8634 571.463 88.5484C572.958 87.2335 574.809 86.3917 576.782 86.1292C578.756 85.8667 580.761 86.1955 582.548 87.0736C584.334 87.9518 585.819 89.3405 586.816 91.0635C587.814 92.7864 588.278 94.7669 588.15 96.7545C588.023 98.7417 587.309 100.647 586.1 102.229C584.891 103.811 583.24 104.999 581.356 105.643C580.066 106.083 577.154 107.204 577.154 107.204C577.154 107.204 575.502 108.225 574.525 109.474C573.73 110.491 572.545 112.791 571.682 115.225M569.077 124.947L569.403 123.732" stroke="white" stroke-width="6" stroke-linecap="round" stroke-linejoin="round"/>
<path d="M506.361 128.674C505.217 127.531 504.436 126.075 504.118 124.489C503.801 122.903 503.96 121.259 504.577 119.765C505.194 118.27 506.24 116.992 507.583 116.093C508.926 115.193 510.506 114.712 512.123 114.71C513.74 114.708 515.322 115.186 516.668 116.083C518.014 116.98 519.065 118.255 519.686 119.749C520.308 121.242 520.473 122.885 520.161 124.472C519.947 125.558 519.553 128.062 519.553 128.062C519.553 128.062 519.6 129.639 520.082 130.833C520.474 131.805 521.611 133.573 522.973 135.169M528.754 140.95L528.031 140.227" stroke="white" stroke-width="5" stroke-linecap="round" stroke-linejoin="round"/>
</g>
</g>
<path d="M99.486 305.035C88.407 302.067 80.4528 292.333 79.704 280.813L79.6752 279.952C79.5807 276.93 79.8573 274.483 80.4878 272.13L93.131 224.945L61.3255 276.489C56.9575 284.153 59.5881 294.018 67.2337 298.507L166.567 355.839C167.81 356.543 169.101 357.067 170.416 357.419C177.309 359.266 184.832 356.379 188.404 350.111L199.951 331.955L99.486 305.035Z" fill="#34477B"/>
<path d="M250.606 232.412L229.28 311.999C226.981 320.58 218.118 325.697 209.537 323.397L102.269 294.655C101.577 294.47 100.903 294.214 100.299 293.978C93.2734 291.132 89.1938 283.66 90.6056 276.176C90.6473 275.741 90.7587 275.326 90.8697 274.911L112.195 195.325C114.494 186.743 123.357 181.626 131.938 183.926L239.207 212.668C247.788 214.968 252.905 223.83 250.606 232.412V232.412Z" fill="#34477B"/>
<path d="M155.539 227.338C153.491 234.981 145.633 239.519 137.99 237.471C130.345 235.422 125.809 227.564 127.857 219.92C129.905 212.277 137.762 207.739 145.407 209.788C153.051 211.836 157.587 219.694 155.539 227.338Z" fill="#FFC046"/>
<path d="M234.491 292.551L229.28 311.998C226.981 320.58 218.118 325.697 209.537 323.397L102.268 294.655C101.576 294.469 100.903 294.214 100.298 293.977L190.68 241.797C196.647 238.352 204.397 240.428 207.842 246.396L234.491 292.551Z" fill="#58A75B"/>
<path d="M183.998 316.555L102.267 294.655C101.576 294.469 100.902 294.214 100.298 293.978C93.2723 291.132 89.1927 283.66 90.6045 276.176L132.285 252.111C138.252 248.667 146.002 250.743 149.448 256.709L183.998 316.555Z" fill="#6BCB6E"/>
<defs>
<linearGradient id="paint0_linear" x1="800.893" y1="434.337" x2="-17.6071" y2="39.8375" gradientUnits="userSpaceOnUse">
<stop stop-color="#B38FFF"/>
<stop offset="0.0001" stop-color="#9878F0"/>
<stop offset="1" stop-color="#7D98F9"/>
</linearGradient>
<linearGradient id="paint1_linear" x1="167.626" y1="70.7048" x2="653.155" y2="205.704" gradientUnits="userSpaceOnUse">
<stop stop-color="#567BDE"/>
<stop offset="1" stop-color="#7D56DB"/>
</linearGradient>
<clipPath id="clip0">
<rect x="445.892" y="54.4985" width="159.036" height="159.036" transform="rotate(-15 445.892 54.4985)" fill="white"/>
</clipPath>
</defs>
</svg>
