<svg width="814" height="823" viewBox="0 0 814 823" fill="none" xmlns="http://www.w3.org/2000/svg">
<path d="M510.901 591.397C742.958 658.07 720.289 358.804 587.889 180.961C455.489 3.11704 179 205.5 117.92 325.875C56.8391 446.251 36.7848 654.402 204.419 591.397C372.053 528.393 278.844 524.724 510.901 591.397Z" fill="url(#paint0_linear)" fill-opacity="0.4"/>
<path d="M434.131 245.658C421.65 224.935 396.647 214.029 372.213 220.576C356.118 224.889 343.601 235.891 336.796 249.806C332.262 248.941 327.472 249.06 322.72 250.333C308.109 254.248 298.65 267.798 299.268 282.369C296.398 282.484 293.497 282.906 290.607 283.68C269.456 289.348 256.925 311.168 262.619 332.417C268.313 353.666 290.075 366.298 311.226 360.631L449.099 323.688C470.25 318.021 482.781 296.2 477.088 274.951C471.901 255.593 453.378 243.393 434.131 245.658Z" fill="#FFF5DF"/>
<path d="M278.665 377.603L391.427 695.101C394.206 702.928 402.505 707.312 410.492 705.172L535.399 671.703C543.386 669.563 548.381 661.618 546.874 653.449L485.78 322.107L278.665 377.603Z" fill="#C7C6C5"/>
<path d="M543.745 636.477L485.78 322.107L278.665 377.603L385.651 678.838L543.745 636.477Z" fill="#FCCE0B"/>
<path d="M464.698 657.657L543.745 636.476L485.78 322.106L382.222 349.854L464.698 657.657Z" fill="#F9A21E"/>
<path d="M485.782 322.106L480.216 291.922C478.53 282.776 469.436 277 460.493 279.396L279.212 327.971C270.269 330.367 265.281 339.916 268.394 348.68L278.666 377.602L485.782 322.106Z" fill="#F0D9BA"/>
<path d="M460.49 279.397L369.85 303.684L382.221 349.855L485.779 322.106L480.214 291.923C478.527 282.777 469.432 277.001 460.49 279.397Z" fill="#EEC08E"/>
<path d="M442.307 696.647L535.399 671.703C543.386 669.563 548.38 661.618 546.874 653.449L543.745 636.477L464.698 657.658C469.252 674.657 459.228 692.113 442.307 696.647Z" fill="#A0A5A9"/>
<path d="M392.427 633.035C400.887 630.768 405.9 622.04 403.622 613.54C401.345 605.041 392.64 599.988 384.179 602.255C375.719 604.522 370.706 613.25 372.984 621.75C375.261 630.25 383.966 635.302 392.427 633.035Z" fill="#F9A21E"/>
<path d="M360.615 468.36C366.96 466.659 370.72 460.113 369.012 453.739C367.303 447.364 360.775 443.574 354.429 445.274C348.084 446.975 344.325 453.521 346.033 459.896C347.741 466.27 354.27 470.06 360.615 468.36Z" fill="#F9A21E"/>
<path d="M410.986 559.335C415.216 558.201 417.722 553.837 416.583 549.587C415.444 545.337 411.092 542.811 406.862 543.944C402.631 545.078 400.125 549.442 401.264 553.692C402.403 557.942 406.755 560.468 410.986 559.335Z" fill="#F9A21E"/>
<path d="M468.241 425.777C476.702 423.51 481.714 414.782 479.437 406.282C477.159 397.782 468.454 392.73 459.994 394.997C451.533 397.264 446.521 405.992 448.798 414.492C451.076 422.991 459.781 428.044 468.241 425.777Z" fill="#FCCE0B"/>
<path d="M503.488 603.275C509.833 601.575 513.592 595.029 511.884 588.654C510.176 582.279 503.647 578.49 497.302 580.19C490.956 581.89 487.197 588.437 488.905 594.811C490.613 601.186 497.142 604.976 503.488 603.275Z" fill="#FCCE0B"/>
<path d="M445.554 484.091C449.785 482.958 452.291 478.594 451.152 474.344C450.013 470.094 445.661 467.568 441.431 468.701C437.2 469.835 434.694 474.199 435.833 478.448C436.972 482.698 441.324 485.225 445.554 484.091Z" fill="#FCCE0B"/>
<path d="M369.849 303.684L394.592 396.025C396.87 404.525 405.574 409.577 414.035 407.31C422.496 405.043 427.508 396.315 425.23 387.815L416.983 357.035C414.705 348.535 419.717 339.807 428.178 337.54C436.639 335.273 445.344 340.325 447.621 348.825C449.899 357.325 458.603 362.378 467.064 360.111C475.525 357.844 480.537 349.116 478.26 340.616L461.765 279.055C459.487 270.555 450.783 265.503 442.322 267.77L381.045 284.189C372.584 286.456 367.572 295.184 369.849 303.684Z" fill="#FFF5DF"/>
<path fill-rule="evenodd" clip-rule="evenodd" d="M372.213 220.576C396.647 214.029 421.65 224.935 434.131 245.658C453.378 243.393 471.901 255.593 477.088 274.951C479.969 285.704 475.561 284.989 467.2 283.634C465.838 283.413 464.371 283.176 462.813 282.968L478.26 340.616C480.537 349.116 475.525 357.844 467.064 360.111C458.603 362.378 449.899 357.325 447.621 348.825C445.344 340.325 436.639 335.273 428.178 337.54C419.717 339.807 414.705 348.535 416.983 357.035L425.231 387.815C427.508 396.315 422.496 405.043 414.035 407.31C405.574 409.577 396.87 404.525 394.592 396.025L369.85 303.685L283.77 326.75C280.652 329.581 278.118 333.577 275.908 337.061C270.811 345.099 267.441 350.413 262.619 332.417C256.925 311.168 269.456 289.348 290.607 283.68C293.497 282.906 296.398 282.484 299.268 282.369C298.65 267.798 308.109 254.248 322.72 250.333C327.472 249.06 332.262 248.941 336.796 249.806C343.601 235.891 356.118 224.889 372.213 220.576Z" fill="#FFFCF7"/>
<path d="M301.75 338.427C293.175 340.724 288.392 349.881 291.376 358.285L406.265 681.771C407.737 685.916 412.131 688.237 416.361 687.104C420.968 685.869 423.619 681.032 422.196 676.457L320.224 348.661C317.788 340.831 309.634 336.314 301.75 338.427V338.427Z" fill="white"/>
<defs>
<linearGradient id="paint0_linear" x1="648.888" y1="644.961" x2="-77.8344" y2="200.326" gradientUnits="userSpaceOnUse">
<stop stop-color="#9878F0"/>
<stop offset="0.9999" stop-color="#7D98F9"/>
<stop offset="1" stop-color="#9878F0"/>
</linearGradient>
</defs>
</svg>
