<svg width="831" height="583" viewBox="0 0 831 583" fill="none" xmlns="http://www.w3.org/2000/svg">
<path d="M196.754 253.899C-37.5495 312.187 134.68 477.475 338.264 565.292C541.847 653.109 759.915 392.587 822.55 260.08C885.186 127.573 582.776 -94.6013 469.103 43.7792C355.43 182.16 431.057 195.611 196.754 253.899Z" fill="url(#paint0_linear)" fill-opacity="0.4"/>
<g filter="url(#filter0_d)">
<rect x="9" y="61" width="592" height="124" rx="5" fill="#EAEEF8"/>
</g>
<circle cx="83.5" cy="123.5" r="40.5" fill="#CCD2E1"/>
<rect x="164" y="97" width="238" height="20" rx="10" fill="#CCD2E1"/>
<rect x="164" y="129" width="152" height="20" rx="10" fill="#CCD2E1"/>
<g filter="url(#filter1_d)">
<rect x="9" y="215" width="592" height="124" rx="5" fill="#EAEEF8"/>
</g>
<circle cx="83.5" cy="277.5" r="40.5" fill="#CCD2E1"/>
<rect x="164" y="251" width="313" height="20" rx="10" fill="#CCD2E1"/>
<rect x="164" y="283" width="205" height="20" rx="10" fill="#CCD2E1"/>
<g filter="url(#filter2_d)">
<rect x="9" y="369" width="592" height="124" rx="5" fill="#EAEEF8"/>
</g>
<circle cx="83.5" cy="431.5" r="40.5" fill="#CCD2E1"/>
<rect x="164" y="405" width="205" height="20" rx="10" fill="#CCD2E1"/>
<rect x="164" y="437" width="104" height="20" rx="10" fill="#CCD2E1"/>
<defs>
<filter id="filter0_d" x="0" y="54" width="610" height="142" filterUnits="userSpaceOnUse" color-interpolation-filters="sRGB">
<feFlood flood-opacity="0" result="BackgroundImageFix"/>
<feColorMatrix in="SourceAlpha" type="matrix" values="0 0 0 0 0 0 0 0 0 0 0 0 0 0 0 0 0 0 127 0"/>
<feOffset dy="2"/>
<feGaussianBlur stdDeviation="4.5"/>
<feColorMatrix type="matrix" values="0 0 0 0 0 0 0 0 0 0 0 0 0 0 0 0 0 0 0.2 0"/>
<feBlend mode="normal" in2="BackgroundImageFix" result="effect1_dropShadow"/>
<feBlend mode="normal" in="SourceGraphic" in2="effect1_dropShadow" result="shape"/>
</filter>
<filter id="filter1_d" x="0" y="208" width="610" height="142" filterUnits="userSpaceOnUse" color-interpolation-filters="sRGB">
<feFlood flood-opacity="0" result="BackgroundImageFix"/>
<feColorMatrix in="SourceAlpha" type="matrix" values="0 0 0 0 0 0 0 0 0 0 0 0 0 0 0 0 0 0 127 0"/>
<feOffset dy="2"/>
<feGaussianBlur stdDeviation="4.5"/>
<feColorMatrix type="matrix" values="0 0 0 0 0 0 0 0 0 0 0 0 0 0 0 0 0 0 0.2 0"/>
<feBlend mode="normal" in2="BackgroundImageFix" result="effect1_dropShadow"/>
<feBlend mode="normal" in="SourceGraphic" in2="effect1_dropShadow" result="shape"/>
</filter>
<filter id="filter2_d" x="0" y="362" width="610" height="142" filterUnits="userSpaceOnUse" color-interpolation-filters="sRGB">
<feFlood flood-opacity="0" result="BackgroundImageFix"/>
<feColorMatrix in="SourceAlpha" type="matrix" values="0 0 0 0 0 0 0 0 0 0 0 0 0 0 0 0 0 0 127 0"/>
<feOffset dy="2"/>
<feGaussianBlur stdDeviation="4.5"/>
<feColorMatrix type="matrix" values="0 0 0 0 0 0 0 0 0 0 0 0 0 0 0 0 0 0 0.2 0"/>
<feBlend mode="normal" in2="BackgroundImageFix" result="effect1_dropShadow"/>
<feBlend mode="normal" in="SourceGraphic" in2="effect1_dropShadow" result="shape"/>
</filter>
<linearGradient id="paint0_linear" x1="-78.0252" y1="104.182" x2="872.159" y2="357.321" gradientUnits="userSpaceOnUse">
<stop stop-color="#7D98F9"/>
<stop offset="1" stop-color="#9878F0"/>
</linearGradient>
</defs>
</svg>
