<svg width="814" height="822" viewBox="0 0 814 822" fill="none" xmlns="http://www.w3.org/2000/svg">
<path d="M227.716 387.059C39.2071 437.348 177.775 579.955 341.568 655.722C505.362 731.488 680.808 506.716 731.202 392.391C781.596 278.067 538.291 86.38 446.836 205.772C355.38 325.164 416.226 336.769 227.716 387.059Z" fill="url(#paint0_linear)" fill-opacity="0.4"/>
<rect x="111" y="235.561" width="451.87" height="94.6484" rx="8" fill="#EAEEF8"/>
<circle cx="167.865" cy="283.267" r="30.9134" fill="#7E96F0"/>
<rect x="229.31" y="263.04" width="181.664" height="15.2659" rx="7.63293" fill="#CCD2E1"/>
<rect x="229.31" y="287.465" width="116.021" height="15.2659" rx="7.63293" fill="#CCD2E1"/>
<rect x="111" y="353.108" width="451.87" height="94.6484" rx="8" fill="#EAEEF8"/>
<circle cx="167.865" cy="400.814" r="30.9134" fill="#7E96F0"/>
<rect x="229.31" y="380.587" width="238.911" height="15.2659" rx="7.63293" fill="#CCD2E1"/>
<rect x="229.31" y="405.012" width="156.475" height="15.2659" rx="7.63293" fill="#CCD2E1"/>
<rect x="111" y="470.655" width="451.87" height="94.6484" rx="8" fill="#EAEEF8"/>
<circle cx="167.865" cy="518.361" r="30.9134" fill="#7E96F0"/>
<rect x="229.31" y="498.134" width="156.475" height="15.2659" rx="7.63293" fill="#CCD2E1"/>
<rect x="229.31" y="522.559" width="79.3825" height="15.2659" rx="7.63293" fill="#CCD2E1"/>
<defs>
<linearGradient id="paint0_linear" x1="6.64234" y1="257.886" x2="777.78" y2="449.46" gradientUnits="userSpaceOnUse">
<stop stop-color="#7D98F9"/>
<stop offset="1" stop-color="#9878F0"/>
</linearGradient>
</defs>
</svg>
