<svg width="815" height="823" viewBox="0 0 815 823" fill="none" xmlns="http://www.w3.org/2000/svg">
<path d="M511.657 591.08C743.713 657.753 721.044 358.487 588.644 180.644C456.244 2.80014 179.755 205.183 118.675 325.559C57.5944 445.934 37.5402 654.085 205.174 591.08C372.808 528.076 279.6 524.407 511.657 591.08Z" fill="url(#paint0_linear)" fill-opacity="0.4"/>
<path d="M434.886 245.341C422.406 224.618 397.403 213.712 372.969 220.259C356.873 224.572 344.356 235.574 337.552 249.489C333.017 248.624 328.227 248.743 323.475 250.016C308.864 253.931 299.405 267.481 300.023 282.052C297.153 282.167 294.252 282.589 291.363 283.363C270.212 289.031 257.681 310.852 263.374 332.101C269.068 353.35 290.831 365.981 311.982 360.314L449.855 323.371C471.006 317.704 483.537 295.883 477.843 274.634C472.656 255.276 454.133 243.076 434.886 245.341Z" fill="#FFF5DF"/>
<path d="M279.42 377.286L392.182 694.784C394.962 702.612 403.26 706.995 411.247 704.855L536.154 671.386C544.141 669.246 549.136 661.301 547.63 653.132L486.536 321.79L279.42 377.286Z" fill="#C7C6C5"/>
<path d="M544.5 636.16L486.536 321.79L279.42 377.286L386.406 678.521L544.5 636.16Z" fill="#FCCE0B"/>
<path d="M465.453 657.34L544.5 636.16L486.535 321.789L382.978 349.538L465.453 657.34Z" fill="#F9A21E"/>
<path d="M486.537 321.789L480.972 291.605C479.286 282.459 470.191 276.683 461.249 279.079L279.967 327.654C271.025 330.05 266.037 339.599 269.149 348.363L279.421 377.285L486.537 321.789Z" fill="#F0D9BA"/>
<path d="M461.246 279.08L370.605 303.367L382.976 349.538L486.534 321.79L480.969 291.606C479.283 282.46 470.187 276.684 461.246 279.08Z" fill="#EEC08E"/>
<path d="M443.062 696.33L536.154 671.386C544.141 669.246 549.136 661.301 547.629 653.132L544.5 636.16L465.453 657.341C470.008 674.34 459.983 691.796 443.062 696.33Z" fill="#A0A5A9"/>
<path d="M393.182 632.718C401.643 630.451 406.655 621.723 404.377 613.223C402.1 604.724 393.395 599.671 384.934 601.938C376.474 604.205 371.462 612.933 373.739 621.433C376.017 629.933 384.721 634.985 393.182 632.718Z" fill="#F9A21E"/>
<path d="M361.37 468.043C367.716 466.343 371.475 459.796 369.767 453.422C368.059 447.047 361.53 443.257 355.185 444.958C348.839 446.658 345.08 453.204 346.788 459.579C348.496 465.954 355.025 469.743 361.37 468.043Z" fill="#F9A21E"/>
<path d="M411.741 559.018C415.971 557.884 418.477 553.52 417.339 549.27C416.2 545.02 411.847 542.494 407.617 543.628C403.387 544.761 400.881 549.125 402.019 553.375C403.158 557.625 407.511 560.151 411.741 559.018Z" fill="#F9A21E"/>
<path d="M468.996 425.46C477.457 423.193 482.469 414.465 480.192 405.965C477.914 397.466 469.209 392.413 460.749 394.68C452.288 396.947 447.276 405.675 449.553 414.175C451.831 422.675 460.536 427.727 468.996 425.46Z" fill="#FCCE0B"/>
<path d="M504.243 602.959C510.588 601.258 514.348 594.712 512.64 588.337C510.931 581.963 504.403 578.173 498.057 579.873C491.712 581.574 487.953 588.12 489.661 594.495C491.369 600.869 497.898 604.659 504.243 602.959Z" fill="#FCCE0B"/>
<path d="M446.31 483.774C450.54 482.641 453.046 478.277 451.907 474.027C450.769 469.777 446.416 467.251 442.186 468.384C437.956 469.518 435.45 473.882 436.588 478.132C437.727 482.381 442.079 484.908 446.31 483.774Z" fill="#FCCE0B"/>
<path d="M370.605 303.367L395.347 395.708C397.625 404.208 406.329 409.26 414.79 406.993C423.251 404.726 428.263 395.998 425.986 387.498L417.738 356.718C415.461 348.218 420.473 339.49 428.934 337.223C437.395 334.956 446.099 340.008 448.377 348.508C450.654 357.009 459.359 362.061 467.82 359.794C476.281 357.527 481.293 348.799 479.015 340.299L462.52 278.738C460.242 270.238 451.538 265.186 443.077 267.453L381.8 283.872C373.339 286.139 368.327 294.867 370.605 303.367Z" fill="#FFF5DF"/>
<path fill-rule="evenodd" clip-rule="evenodd" d="M372.969 220.259C397.403 213.712 422.406 224.618 434.886 245.341C454.133 243.076 472.656 255.276 477.843 274.634C480.724 285.387 476.316 284.672 467.956 283.317C466.593 283.097 465.126 282.859 463.568 282.651L479.015 340.299C481.293 348.799 476.281 357.527 467.82 359.794C459.359 362.061 450.654 357.009 448.377 348.508C446.099 340.008 437.395 334.956 428.934 337.223C420.473 339.49 415.461 348.218 417.738 356.718L425.986 387.498C428.263 395.998 423.251 404.726 414.79 406.993C406.329 409.26 397.625 404.208 395.347 395.708L370.605 303.368L284.525 326.433C281.407 329.264 278.873 333.26 276.663 336.744C271.566 344.782 268.196 350.096 263.374 332.101C257.681 310.852 270.212 289.031 291.363 283.363C294.252 282.589 297.153 282.167 300.023 282.052C299.405 267.481 308.864 253.931 323.475 250.016C328.227 248.743 333.017 248.624 337.552 249.489C344.356 235.574 356.873 224.572 372.969 220.259Z" fill="#FFFCF7"/>
<path d="M302.505 338.11C293.93 340.408 289.147 349.565 292.131 357.968L407.02 681.454C408.492 685.599 412.886 687.921 417.116 686.787C421.724 685.553 424.374 680.715 422.951 676.14L320.98 348.344C318.543 340.515 310.39 335.997 302.505 338.11V338.11Z" fill="white"/>
<defs>
<linearGradient id="paint0_linear" x1="649.644" y1="644.644" x2="-77.079" y2="200.009" gradientUnits="userSpaceOnUse">
<stop stop-color="#9878F0"/>
<stop offset="0.9999" stop-color="#7D98F9"/>
<stop offset="1" stop-color="#9878F0"/>
</linearGradient>
</defs>
</svg>
