<svg width="814" height="821" viewBox="0 0 814 821" fill="none" xmlns="http://www.w3.org/2000/svg">
<path d="M619.68 534.111C828.885 537.868 721.788 361.093 571.069 242.066C420.35 123.038 114.77 50.866 114.769 311.398C114.768 571.93 218.381 739.001 344.573 648.772C470.764 558.542 410.476 530.354 619.68 534.111Z" fill="url(#paint0_linear)" fill-opacity="0.4"/>
<path d="M434.858 622.645C653.464 453.193 679.762 222.216 680.001 219.91L674.779 219.357C674.544 221.651 648.408 450.489 431.639 618.496L434.858 622.645Z" fill="#B094EC"/>
<path d="M677.199 226.763C677.199 226.763 688.276 213.885 689.356 197.188C689.759 191.149 685.878 180.401 680.245 180.031C674.622 179.661 669.561 187.055 668.973 195.852C667.891 212.554 677.199 226.763 677.199 226.763Z" fill="#B094EC"/>
<path d="M670.638 255.032C670.638 255.032 671.917 239.941 664.156 226.86C661.345 222.121 653.095 215.941 648.915 218.423C644.734 220.891 644.919 228.932 649.008 235.834C656.769 248.91 670.638 255.032 670.638 255.032Z" fill="#B094EC"/>
<path d="M655.295 301.919C655.295 301.919 655.628 288.003 647.34 278.138C644.328 274.569 635.986 271.056 632.076 274.323C628.198 277.596 628.849 284.793 633.218 289.984C641.511 299.849 655.295 301.919 655.295 301.919Z" fill="#B094EC"/>
<path d="M669.415 252.935C669.415 252.935 682.15 258.361 694.32 254.341C698.736 252.874 705.044 246.475 703.457 241.691C701.867 236.899 694.97 234.85 688.562 236.975C676.397 240.998 669.415 252.935 669.415 252.935Z" fill="#B094EC"/>
<path d="M531.122 528.933C531.122 528.933 541.556 538.523 555.471 539.892C560.519 540.382 569.587 537.425 570.038 532.73C570.501 528.042 564.468 523.608 557.137 522.896C543.228 521.535 531.122 528.933 531.122 528.933Z" fill="#B094EC"/>
<path d="M658.28 302.75C658.28 302.75 673.33 307.794 688.2 302.874C693.59 301.095 701.549 293.971 699.894 288.972C698.229 284.004 690.049 282.21 682.211 284.808C667.339 289.729 658.28 302.75 658.28 302.75Z" fill="#B094EC"/>
<path d="M641.461 352.638C641.461 352.638 655.535 359.848 668.531 355.543C673.241 353.987 679.796 346.522 677.841 340.609C675.883 334.706 668.308 331.912 661.459 334.165C648.456 338.467 641.461 352.638 641.461 352.638Z" fill="#B094EC"/>
<path d="M638.158 350.316C638.158 350.316 641.432 335.091 634.218 323.023C631.607 318.66 623.008 313.551 617.971 316.567C612.924 319.581 612.153 327.57 615.957 333.924C623.178 345.983 638.158 350.316 638.158 350.316Z" fill="#B094EC"/>
<path d="M593.789 442.534C593.789 442.534 593.216 432.327 584.24 422.436C580.991 418.858 572.378 413.629 568.684 414.835C564.98 416.029 566.126 421.572 570.84 426.784C579.818 436.669 593.789 442.534 593.789 442.534Z" fill="#B094EC"/>
<path d="M618.634 401.803C618.634 401.803 627.775 404.771 638.743 400.014C642.713 398.281 649.461 392.258 649.331 388.499C649.189 384.724 644.024 383.858 638.239 386.369C627.286 391.121 618.634 401.803 618.634 401.803Z" fill="#B094EC"/>
<path d="M560.305 488.915C560.305 488.915 569.069 474.938 568.947 462.716C568.915 458.292 564.886 452.481 559.996 454.74C555.118 456.995 551.195 464.456 551.258 470.886C551.367 483.095 560.305 488.915 560.305 488.915Z" fill="#B094EC"/>
<path d="M591.755 443.548C591.755 443.548 609.326 451.502 624.871 450.275C630.513 449.819 638.009 445.042 635.271 440.103C632.534 435.163 623.157 431.731 614.961 432.377C599.405 433.612 591.755 443.548 591.755 443.548Z" fill="#B094EC"/>
<path d="M560.759 491.953C560.759 491.953 577.423 499.454 591.429 497.798C596.5 497.209 602.884 492.231 599.955 487.343C597.016 482.469 588.186 479.272 580.818 480.141C566.804 481.789 560.759 491.953 560.759 491.953Z" fill="#B094EC"/>
<path d="M615.596 403.884C615.596 403.884 618.011 391.113 611.742 376.026C609.474 370.565 602.192 361.362 598.056 361.676C593.904 361.983 593.435 369.182 596.744 377.123C603.011 392.208 615.596 403.884 615.596 403.884Z" fill="#B094EC"/>
<path d="M269.075 452.308C259.254 445.116 245.508 433.79 231.842 417.468C210.574 392.067 198.56 358.853 197.42 349.789C196.934 345.922 221.948 351.726 231.752 366.784C232.858 368.483 265.11 392.66 272.89 421.218C276.073 432.905 273.834 440.073 276.768 450.248C277.052 451.234 277.907 454.057 276.727 455.025C275.232 456.252 271.286 453.822 269.075 452.308Z" fill="#94A7EC"/>
<path d="M315.981 412.346C315.981 412.346 317.773 438.323 317.383 441.348C316.993 444.373 321.695 487.966 326.8 497.297C331.904 506.627 349.655 523.526 349.655 523.526C349.655 523.526 357.834 516.322 351.906 485.212C345.977 454.101 337.037 424.935 315.981 412.346Z" fill="#94A7EC"/>
<path d="M372.325 513.464C372.325 513.464 372.052 482.474 382.408 471.793C392.765 461.111 411.129 441.675 416.273 437.934C416.558 437.726 416.801 437.658 417.001 437.718C419.787 438.55 413.031 469.101 398.87 493.969C398.869 493.969 396.297 498.486 376.222 518.135C375.627 518.717 374.156 520.129 373.156 519.714C371.739 519.126 372.103 515.221 372.325 513.464Z" fill="#94A7EC"/>
<path d="M188.009 534.283C188.009 534.283 219.251 559.249 236.63 562.081C254.009 564.914 286.385 563.51 286.385 563.51C286.385 563.51 278.844 552.464 270.275 545.021C261.705 537.577 220.025 522.023 188.009 534.283Z" fill="#94A7EC"/>
<path d="M303.136 588.626C303.136 588.626 279.842 589.505 264.397 618.838C248.953 648.171 252.865 660.049 252.865 660.049C252.865 660.049 273.331 650.091 288.344 629.209C303.358 608.326 303.136 588.626 303.136 588.626Z" fill="#94A7EC"/>
<path d="M256.031 582.335C243.183 581.705 209.809 581.835 177.204 603.357C158.963 615.398 147.564 629.775 141.044 639.64C141.044 639.64 155.425 642.145 182.283 634.594C203.992 628.491 221.16 626.17 235.983 612.737C247.467 602.329 253.159 590.201 256.031 582.335Z" fill="#94A7EC"/>
<path d="M105.829 400.042C106.62 396.771 139.301 401.749 164.036 407.211C201.378 415.457 212.325 422.98 217.05 426.567C228.37 435.162 241.617 449.758 238.213 455.781C234.962 461.534 217.672 457.431 206.93 454.881C162.08 444.237 145.603 421.729 110.3 403.489C108.617 402.619 105.578 401.08 105.829 400.042Z" fill="#94A7EC"/>
<path d="M113.392 497.264C111.646 493.67 132.087 477.19 154.854 469.009C182.138 459.204 213.84 460.934 215.456 467.777C216.342 471.531 208.066 476.339 199.476 481.329C181.226 491.931 171.148 490.89 119.884 497.713C117.175 498.074 113.995 498.504 113.392 497.264Z" fill="#94A7EC"/>
<path d="M374.626 548.904C383.072 537.193 392.383 532.188 397.782 529.951C421.9 519.959 453.362 529.836 476.828 554.885C469.51 555.575 462.193 556.265 454.875 556.955C397.116 552.107 374.253 551.306 372.102 552.81C372.016 552.871 370.94 553.651 374.626 548.904Z" fill="#94A7EC"/>
<path d="M306.201 517.481L284.078 475.639L273.016 454.718L267.486 444.258L264.721 439.028C263.789 437.292 262.902 435.522 261.921 433.824C259.881 430.458 257.574 427.253 255.238 424.079C252.892 420.908 250.486 417.783 248.059 414.674C243.203 408.456 238.251 402.313 233.289 396.18L218.398 377.78C215.928 374.704 213.47 371.618 211.051 368.501C209.846 366.94 208.645 365.375 207.48 363.783C206.314 362.193 205.155 360.592 204.173 358.88C205.16 360.589 206.323 362.187 207.492 363.774C208.662 365.362 209.867 366.924 211.077 368.482C213.503 371.592 215.969 374.671 218.448 377.74L233.388 396.1C238.366 402.22 243.335 408.35 248.209 414.556C250.645 417.66 253.06 420.78 255.416 423.946C257.763 427.118 260.08 430.318 262.139 433.694C263.136 435.41 264.021 437.166 264.958 438.903L267.736 444.126L273.292 454.574L284.402 475.468L306.624 517.257L306.201 517.481Z" fill="#94A7EC"/>
<path d="M364.754 578.893L343.25 500.576C339.692 487.517 336.107 474.46 332.948 461.296C332.169 458.003 331.419 454.702 330.732 451.388C330.065 448.071 329.421 444.743 329.085 441.372C328.882 439.686 329.014 437.985 328.904 436.301C328.819 434.612 328.482 432.943 328.031 431.316C327.569 429.69 326.939 428.111 326.153 426.613C325.361 425.121 324.448 423.681 323.333 422.406C324.451 423.678 325.37 425.115 326.166 426.606C326.957 428.103 327.592 429.682 328.06 431.308C328.516 432.935 328.859 434.605 328.949 436.298C329.063 437.989 328.937 439.685 329.144 441.366C329.49 444.731 330.143 448.057 330.82 451.37C331.516 454.68 332.276 457.978 333.065 461.268C336.261 474.42 339.884 487.464 343.48 500.513L365.215 578.765L364.754 578.893Z" fill="#94A7EC"/>
<path d="M357.809 550.079C359.995 547.759 361.968 545.212 363.736 542.55C364.617 541.213 365.426 539.833 366.179 538.422L366.711 537.348C366.893 536.992 367.063 536.631 367.217 536.262L367.696 535.164L368.115 534.043C370.213 527.98 372.231 521.875 374.378 515.822C375.444 512.792 376.54 509.772 377.672 506.765C378.807 503.761 379.974 500.766 381.273 497.826C381.608 497.095 381.94 496.363 382.287 495.638C382.654 494.923 383.008 494.201 383.394 493.496L385.668 489.25L390.218 480.755L385.722 489.278L383.473 493.539C383.091 494.246 382.744 494.968 382.382 495.684C382.039 496.409 381.712 497.143 381.383 497.874C380.104 500.818 378.956 503.818 377.84 506.828C376.727 509.84 375.651 512.865 374.603 515.901C372.495 521.968 370.519 528.073 368.453 534.163L368.036 535.301L367.559 536.413C367.406 536.787 367.236 537.153 367.055 537.514L366.524 538.601C365.774 540.029 364.966 541.427 364.087 542.779C362.318 545.476 360.359 548.041 358.152 550.413L357.809 550.079Z" fill="#94A7EC"/>
<path d="M360.838 558.314C364.739 555.707 368.718 553.23 372.76 550.855C376.811 548.498 380.932 546.25 385.197 544.297C386.253 543.786 387.35 543.368 388.429 542.908C388.97 542.682 389.53 542.502 390.081 542.297C390.633 542.101 391.18 541.887 391.75 541.742L393.445 541.261L395.16 540.87C396.305 540.624 397.453 540.383 398.608 540.181C400.914 539.764 403.236 539.435 405.568 539.206C407.9 538.981 410.245 538.844 412.587 538.905C410.245 538.864 407.903 539.022 405.575 539.266C403.246 539.514 400.929 539.862 398.629 540.298C397.478 540.51 396.334 540.76 395.192 541.016L393.484 541.42L391.803 541.913C391.238 542.062 390.695 542.28 390.146 542.481C389.6 542.689 389.045 542.872 388.507 543.101C387.436 543.57 386.346 543.995 385.297 544.514C381.06 546.498 376.966 548.777 372.942 551.164C368.929 553.569 364.973 556.079 361.108 558.709L360.838 558.314Z" fill="#94A7EC"/>
<path d="M325.948 571.764C325.011 571.772 324.017 571.894 323.051 571.985C322.079 572.09 321.106 572.197 320.135 572.318C318.191 572.55 316.249 572.805 314.307 573.065C310.425 573.585 306.546 574.139 302.669 574.708C294.917 575.852 287.176 577.071 279.446 578.359C271.717 579.648 264.001 581.017 256.303 582.483C248.611 583.97 240.93 585.535 233.32 587.393C229.519 588.333 225.728 589.33 222.012 590.557C218.292 591.77 214.736 593.433 211.199 595.107C204.139 598.502 197.24 602.223 190.387 606.018C176.7 613.648 163.215 621.636 149.86 629.833C163.191 621.599 176.655 613.572 190.323 605.903C197.166 602.088 204.056 598.347 211.113 594.929C214.648 593.244 218.204 591.566 221.939 590.34C225.663 589.1 229.455 588.093 233.258 587.143C240.871 585.265 248.552 583.682 256.244 582.176C263.941 580.691 271.656 579.304 279.386 577.997C287.115 576.689 294.855 575.452 302.607 574.29C306.484 573.711 310.363 573.148 314.247 572.618C316.189 572.354 318.132 572.094 320.079 571.857C321.051 571.734 322.026 571.624 323.001 571.517C323.985 571.423 324.94 571.297 325.964 571.285L325.948 571.764Z" fill="#94A7EC"/>
<path d="M365.046 580.414C337.44 573.988 309.833 567.567 282.204 561.244L271.837 558.898L266.649 557.751L264.047 557.211C263.175 557.004 262.336 556.724 261.491 556.452C258.125 555.336 254.799 554.118 251.472 552.898L241.515 549.181C228.259 544.169 215.045 539.05 201.847 533.891C215.06 539.012 228.289 544.093 241.558 549.065L251.525 552.753C254.855 553.962 258.186 555.171 261.549 556.276C262.391 556.544 263.235 556.821 264.088 557.022L266.691 557.554L271.884 558.687L282.258 561.005C309.906 567.252 337.531 573.598 365.154 579.948L365.046 580.414Z" fill="#94A7EC"/>
<path d="M329.672 572.407C321.738 576.47 313.961 580.869 306.426 585.639C302.665 588.033 298.967 590.531 295.408 593.214C291.867 595.91 288.408 598.761 285.453 602.09C284.72 602.925 284.024 603.793 283.398 604.709C282.776 605.623 282.234 606.602 281.648 607.551C280.492 609.46 279.316 611.355 278.14 613.25C275.786 617.038 273.425 620.823 271.17 624.67C268.921 628.519 266.757 632.426 264.93 636.494C264.022 638.529 263.2 640.606 262.577 642.747C261.962 644.882 261.524 647.104 261.649 649.336C261.514 647.104 261.941 644.878 262.547 642.738C263.161 640.593 263.973 638.509 264.872 636.469C266.683 632.388 268.829 628.469 271.062 624.607C273.299 620.747 275.644 616.951 277.98 613.151C279.148 611.251 280.314 609.351 281.46 607.438C282.042 606.487 282.575 605.51 283.205 604.577C283.833 603.649 284.532 602.77 285.266 601.927C288.227 598.562 291.683 595.689 295.223 592.971C298.779 590.265 302.473 587.747 306.23 585.333C313.759 580.522 321.519 576.088 329.456 571.98L329.672 572.407Z" fill="#94A7EC"/>
<path d="M258.142 470.543C246.88 469.92 235.596 469.613 224.314 469.573C213.033 469.551 201.743 469.798 190.495 470.683C184.874 471.139 179.262 471.759 173.708 472.735C172.315 472.958 170.94 473.267 169.558 473.548C168.867 473.684 168.188 473.876 167.502 474.037C166.819 474.208 166.13 474.361 165.459 474.575C162.726 475.279 160.131 476.399 157.515 477.451C152.298 479.596 147.142 481.892 142.1 484.422C139.589 485.706 137.097 487.029 134.664 488.456C133.451 489.175 132.245 489.907 131.068 490.684C129.889 491.456 128.725 492.256 127.636 493.153C128.721 492.252 129.884 491.448 131.06 490.671C132.234 489.89 133.438 489.154 134.648 488.43C137.077 486.995 139.565 485.662 142.073 484.369C147.108 481.82 152.258 479.504 157.469 477.341C160.079 476.28 162.679 475.148 165.418 474.431C166.09 474.215 166.78 474.059 167.464 473.885C168.151 473.721 168.83 473.526 169.523 473.388C170.906 473.101 172.283 472.787 173.676 472.558C179.235 471.561 184.851 470.921 190.475 470.445C201.73 469.519 213.026 469.232 224.314 469.214C235.604 469.214 246.892 469.482 258.17 470.065L258.142 470.543Z" fill="#94A7EC"/>
<path d="M365.425 579.907C349.311 561.965 332.885 544.291 316.158 526.912C307.789 518.227 299.331 509.627 290.741 501.162C282.149 492.7 273.424 484.367 264.431 476.333C259.928 472.325 255.361 468.386 250.651 464.623C245.937 460.876 241.114 457.228 235.909 454.205C235.258 453.827 234.59 453.483 233.931 453.123C233.25 452.807 232.59 452.442 231.894 452.166C230.521 451.573 229.094 451.051 227.697 450.49L219.273 447.178L202.424 440.553L135.031 414.056L202.51 440.33L219.38 446.898L227.814 450.182C229.219 450.741 230.629 451.251 232.029 451.85C232.736 452.129 233.402 452.493 234.091 452.81C234.756 453.171 235.431 453.516 236.087 453.893C241.333 456.917 246.177 460.557 250.913 464.296C255.643 468.049 260.229 471.978 264.75 475.975C273.778 483.988 282.535 492.297 291.161 500.736C299.783 509.177 308.274 517.753 316.674 526.414C333.467 543.745 349.953 561.367 366.139 579.27L365.425 579.907Z" fill="#94A7EC"/>
<path d="M614.323 262.885L613.701 271.231C613.609 272.364 611.44 299.348 595.443 330.883C581.715 357.931 555 393.159 504.564 412.958C500.629 414.512 496.544 415.962 492.31 417.309L487.587 402.501C499.443 398.775 510.863 393.786 521.651 387.62C547.358 372.794 567.346 351.633 581.285 324.402C588.68 309.904 593.95 294.42 596.934 278.424H539.552V262.885H614.323Z" fill="url(#paint1_linear)"/>
<path opacity="0.1" d="M498.387 412.968C548.814 393.169 575.538 357.949 589.256 330.902C605.254 299.366 607.432 272.401 607.515 271.249L608.137 262.904H614.543L613.921 271.249C613.838 272.383 611.66 299.366 595.663 330.902C581.935 357.949 555.221 393.169 504.794 412.968C500.858 414.521 496.77 415.975 492.53 417.328L491.908 415.381C494.116 414.595 496.276 413.79 498.387 412.968Z" fill="white"/>
<path d="M397.423 402.501L392.701 417.309C388.46 415.956 384.372 414.503 380.437 412.949C330.01 393.15 303.287 357.931 289.568 330.883C273.57 299.348 271.392 272.382 271.31 271.231L270.688 262.885H345.422V278.424H288.03C291.03 294.422 296.316 309.906 303.726 324.402C317.664 351.633 337.643 372.794 363.35 387.611C374.139 393.783 385.563 398.775 397.423 402.501V402.501Z" fill="url(#paint2_linear)"/>
<path opacity="0.1" d="M386.606 412.968C336.179 393.169 309.455 357.949 295.736 330.902C279.739 299.366 277.561 272.401 277.478 271.249L276.856 262.904H270.45L271.072 271.249C271.154 272.383 273.333 299.366 289.33 330.902C303.058 357.949 329.772 393.169 380.199 412.968C384.135 414.521 388.222 415.975 392.463 417.328L393.085 415.381C390.883 414.595 388.723 413.79 386.606 412.968Z" fill="white"/>
<path d="M528.835 545.645V629.439H356.167V545.645L361.658 538.333C417.612 518.497 428.952 466.77 431.212 446.304C431.548 443.475 431.741 440.632 431.789 437.784H453.14C453.188 440.632 453.38 443.475 453.717 446.304C456.014 466.77 467.353 518.516 523.271 538.333L528.835 545.645Z" fill="url(#paint3_linear)"/>
<path opacity="0.1" d="M528.835 545.645H356.167V556.157H528.835V545.645Z" fill="#F9A21E"/>
<path opacity="0.1" d="M370.81 538.333C426.764 518.497 438.103 466.77 440.364 446.304C440.7 443.475 440.893 440.632 440.941 437.784H431.789C431.741 440.632 431.548 443.475 431.212 446.304C428.915 466.77 417.576 518.516 361.658 538.333L356.167 545.645V629.439H365.318V545.645L370.81 538.333Z" fill="white"/>
<path opacity="0.1" d="M329.937 262.885H345.422V278.424H331.31C330.755 273.305 330.297 268.126 329.937 262.885Z" fill="#F9A21E"/>
<path opacity="0.1" d="M397.423 402.501L392.7 417.309C388.46 415.956 384.372 414.502 380.437 412.949C373.963 405.053 368.243 396.57 363.35 387.61C374.139 393.782 385.562 398.775 397.423 402.501Z" fill="#F9A21E"/>
<path opacity="0.1" d="M487.579 402.501C499.434 398.775 510.854 393.785 521.642 387.62C516.747 396.58 511.026 405.066 504.555 412.967C500.62 414.521 496.535 415.972 492.301 417.318L487.579 402.501Z" fill="#F9A21E"/>
<path opacity="0.1" d="M555.055 262.885C554.695 268.126 554.238 273.305 553.683 278.424H539.58V262.885H555.055Z" fill="#F9A21E"/>
<path opacity="0.1" d="M453.753 446.304C446.321 447.742 438.681 447.742 431.249 446.304C431.585 443.475 431.777 440.632 431.825 437.784H453.176C453.224 440.632 453.417 443.475 453.753 446.304V446.304Z" fill="#F9A21E"/>
<path d="M331.768 237.145C332.161 352.373 381.581 445.554 442.506 445.554C503.43 445.554 552.841 352.373 553.244 237.145H331.768Z" fill="url(#paint4_linear)"/>
<path opacity="0.1" d="M351.444 237.145H331.768C332.161 352.373 381.581 445.554 442.506 445.554C445.802 445.548 449.093 445.27 452.344 444.722C396.023 435.325 351.819 346.102 351.444 237.145Z" fill="white"/>
<path d="M501.224 577.72H383.778V607.885H501.224V577.72Z" fill="#3F3D56"/>
<path opacity="0.1" d="M389.269 581.834H501.224V577.72H383.778V607.885H389.269V581.834Z" fill="white"/>
<defs>
<linearGradient id="paint0_linear" x1="729.32" y1="593.753" x2="69.6768" y2="147.145" gradientUnits="userSpaceOnUse">
<stop stop-color="#9878F0"/>
<stop offset="1" stop-color="#7D98F9"/>
</linearGradient>
<linearGradient id="paint1_linear" x1="550.955" y1="262.885" x2="550.955" y2="417.309" gradientUnits="userSpaceOnUse">
<stop stop-color="#5B76DE"/>
<stop offset="1" stop-color="#7B58DB"/>
</linearGradient>
<linearGradient id="paint2_linear" x1="334.055" y1="262.885" x2="334.055" y2="417.309" gradientUnits="userSpaceOnUse">
<stop stop-color="#5B76DE"/>
<stop offset="1" stop-color="#7B58DB"/>
</linearGradient>
<linearGradient id="paint3_linear" x1="442.501" y1="437.784" x2="442.501" y2="629.439" gradientUnits="userSpaceOnUse">
<stop stop-color="#5B76DE"/>
<stop offset="1" stop-color="#7B58DB"/>
</linearGradient>
<linearGradient id="paint4_linear" x1="442.506" y1="237.145" x2="442.506" y2="445.554" gradientUnits="userSpaceOnUse">
<stop stop-color="#5B76DE"/>
<stop offset="1" stop-color="#7B58DB"/>
</linearGradient>
</defs>
</svg>
