<svg width="814" height="822" viewBox="0 0 814 822" fill="none" xmlns="http://www.w3.org/2000/svg">
<path d="M666.829 353.784C694.916 506.394 803.523 494.856 604.099 637.003C404.675 779.15 69.4915 558.357 94.3037 384.68C119.116 211.003 250.191 126.638 392.035 141.72C533.879 156.802 638.741 201.173 666.829 353.784Z" fill="url(#paint0_linear)" fill-opacity="0.4"/>
<mask id="mask0" mask-type="alpha" maskUnits="userSpaceOnUse" x="93" y="140" width="629" height="543">
<path d="M666.829 353.784C694.916 506.394 803.523 494.856 604.099 637.003C404.675 779.15 69.4915 558.357 94.3037 384.68C119.116 211.003 250.191 126.638 392.035 141.72C533.879 156.802 638.741 201.173 666.829 353.784Z" fill="white"/>
</mask>
<g mask="url(#mask0)">
<path d="M581.655 231.133H307.275C283.505 231.133 264.235 250.426 264.235 274.225V709.539C264.235 733.338 283.505 752.631 307.275 752.631H581.655C605.426 752.631 624.696 733.338 624.696 709.539V274.225C624.696 250.426 605.426 231.133 581.655 231.133Z" fill="white"/>
<rect x="279.215" y="246.113" width="330.501" height="508.391" fill="url(#paint1_linear)"/>
<path d="M528.698 485.236C521.98 474.08 508.52 468.21 495.367 471.734C486.703 474.056 479.965 479.978 476.302 487.468C473.861 487.003 471.283 487.067 468.725 487.752C460.86 489.86 455.768 497.154 456.1 504.997C454.555 505.06 452.994 505.287 451.438 505.703C440.052 508.754 433.307 520.501 436.372 531.939C439.437 543.378 451.152 550.177 462.538 547.127L536.756 527.24C548.141 524.189 554.887 512.443 551.822 501.004C549.03 490.584 539.059 484.016 528.698 485.236Z" fill="#FFF5DF"/>
<path d="M445.009 556.263L505.71 727.174C507.206 731.388 511.674 733.748 515.973 732.596L583.212 714.579C587.511 713.427 590.2 709.15 589.389 704.753L556.501 526.388L445.009 556.263Z" fill="#C7C6C5"/>
<path d="M587.704 695.617L556.501 526.388L445.009 556.263L502.601 718.42L587.704 695.617Z" fill="#FCCE0B"/>
<path d="M545.153 707.018L587.704 695.616L556.501 526.388L500.755 541.325L545.153 707.018Z" fill="#F9A21E"/>
<path d="M556.502 526.388L553.507 510.14C552.599 505.217 547.703 502.108 542.89 503.397L445.304 529.545C440.49 530.835 437.805 535.976 439.481 540.693L445.01 556.262L556.502 526.388Z" fill="#F0D9BA"/>
<path d="M542.887 503.398L494.095 516.472L500.754 541.326L556.5 526.388L553.505 510.14C552.597 505.217 547.701 502.108 542.887 503.398Z" fill="#EEC08E"/>
<path d="M506.249 693.764C510.803 692.544 513.501 687.845 512.275 683.27C511.049 678.694 506.363 675.974 501.809 677.195C497.255 678.415 494.556 683.113 495.782 687.689C497.008 692.264 501.694 694.984 506.249 693.764Z" fill="#F9A21E"/>
<path d="M489.124 605.118C492.54 604.202 494.563 600.679 493.644 597.247C492.724 593.815 489.21 591.775 485.794 592.691C482.378 593.606 480.355 597.13 481.274 600.561C482.194 603.993 485.708 606.033 489.124 605.118Z" fill="#F9A21E"/>
<path d="M516.239 654.09C518.516 653.48 519.865 651.131 519.252 648.843C518.639 646.555 516.296 645.195 514.019 645.806C511.742 646.416 510.392 648.765 511.005 651.053C511.618 653.34 513.961 654.7 516.239 654.09Z" fill="#F9A21E"/>
<path d="M547.06 582.195C551.615 580.975 554.313 576.276 553.087 571.701C551.861 567.125 547.175 564.405 542.62 565.626C538.066 566.846 535.368 571.545 536.594 576.12C537.82 580.696 542.506 583.415 547.06 582.195Z" fill="#FCCE0B"/>
<path d="M566.033 677.744C569.449 676.829 571.473 673.305 570.553 669.873C569.634 666.442 566.119 664.402 562.703 665.317C559.288 666.232 557.264 669.756 558.183 673.188C559.103 676.619 562.617 678.659 566.033 677.744Z" fill="#FCCE0B"/>
<path d="M534.847 613.586C537.125 612.976 538.474 610.627 537.861 608.339C537.248 606.051 534.905 604.692 532.628 605.302C530.35 605.912 529.001 608.261 529.614 610.549C530.227 612.837 532.57 614.196 534.847 613.586Z" fill="#FCCE0B"/>
<path d="M494.095 516.471L507.414 566.179C508.64 570.755 513.326 573.475 517.88 572.254C522.435 571.034 525.133 566.336 523.907 561.76L519.467 545.191C518.241 540.615 520.939 535.917 525.494 534.696C530.048 533.476 534.734 536.196 535.96 540.771C537.186 545.347 541.872 548.067 546.426 546.846C550.981 545.626 553.679 540.928 552.453 536.352L543.574 503.214C542.348 498.638 537.662 495.918 533.107 497.139L500.121 505.977C495.567 507.198 492.869 511.896 494.095 516.471Z" fill="#FFF5DF"/>
<path fill-rule="evenodd" clip-rule="evenodd" d="M495.367 471.734C508.52 468.21 521.98 474.08 528.698 485.236C539.059 484.016 549.03 490.584 551.822 501.004C553.373 506.793 551 506.408 546.5 505.679C545.766 505.56 544.976 505.432 544.138 505.32L552.453 536.352C553.679 540.928 550.981 545.626 546.426 546.846C541.872 548.067 537.186 545.347 535.96 540.771C534.734 536.196 530.048 533.476 525.494 534.696C520.939 535.917 518.241 540.615 519.467 545.191L523.907 561.76C525.133 566.336 522.435 571.034 517.88 572.254C513.326 573.475 508.64 570.755 507.414 566.179L494.095 516.472L447.758 528.888C446.079 530.412 444.715 532.563 443.525 534.439C440.782 538.766 438.967 541.626 436.372 531.939C433.307 520.501 440.052 508.754 451.438 505.703C452.994 505.287 454.555 505.06 456.1 504.997C455.768 497.154 460.86 489.86 468.725 487.752C471.283 487.067 473.861 487.003 476.302 487.468C479.965 479.978 486.703 474.056 495.367 471.734Z" fill="#FFFCF7"/>
<path d="M457.436 535.174C452.82 536.411 450.245 541.34 451.852 545.864L513.698 719.999C514.49 722.23 516.855 723.48 519.132 722.87C521.613 722.205 523.039 719.601 522.273 717.138L467.381 540.683C466.07 536.468 461.68 534.036 457.436 535.174V535.174Z" fill="white"/>
<path fill-rule="evenodd" clip-rule="evenodd" d="M344.701 242.053V246.113C347.398 246.113 349.618 248.236 349.743 250.932C350.427 265.803 358.049 273.239 372.609 273.239C384.484 273.239 414.88 273.281 445.146 273.325C475.138 273.281 505.26 273.239 517.027 273.239C531.455 273.239 539.009 265.803 539.687 250.932C539.81 248.236 542.011 246.113 544.684 246.113V242.521L344.701 242.053ZM313.276 246.113C294.472 246.113 279.215 261.362 279.215 280.173H275.103L277.912 244.393L313.276 243.457V246.113ZM575.654 246.113H609.716V280.173C609.716 261.362 594.459 246.113 575.654 246.113Z" fill="white"/>
<rect x="411.421" y="245.177" width="66.234" height="11.3306" rx="5.66532" fill="#EAEEF8"/>
<ellipse cx="492.108" cy="250.842" rx="5.6772" ry="5.66532" fill="#EAEEF8"/>
</g>
<g clip-path="url(#clip0)">
<path d="M529.013 186.057L633.974 157.933C645.818 154.759 656.283 159.896 659.603 172.287L676.347 234.776C682.531 257.854 671.027 271.951 659.183 275.124L608.881 288.603C608.881 288.603 589.872 323.902 578.506 326.947C575.158 327.844 570.954 298.765 570.954 298.765L560 301.7C548.156 304.874 537.723 292.725 533.67 277.6L516.092 211.998C512.041 196.881 517.169 189.23 529.013 186.057Z" fill="#7B57DB"/>
<mask id="mask1" mask-type="alpha" maskUnits="userSpaceOnUse" x="514" y="157" width="165" height="170">
<path d="M529.013 186.057L633.974 157.933C645.818 154.759 656.283 159.896 659.603 172.287L676.347 234.776C682.531 257.854 671.027 271.951 659.183 275.124L608.881 288.603C608.881 288.603 589.872 323.902 578.506 326.947C575.158 327.844 570.954 298.765 570.954 298.765L560 301.7C548.156 304.874 537.723 292.725 533.67 277.6L516.092 211.998C512.041 196.881 517.169 189.23 529.013 186.057Z" fill="#7B57DB"/>
</mask>
<g mask="url(#mask1)">
<path d="M620.012 261.419C612.685 267.916 589.571 283.178 534.579 297.913L564.494 308.032L573.561 341.874C584.621 342.538 605.966 310.522 615.256 294.431L691.399 274.028L654.298 152.487L645.837 154.754C645.837 154.754 637.468 155.785 643.874 164.347C672.13 202.114 627.339 254.922 620.012 261.419Z" fill="#5735B1"/>
<path d="M575.843 214.345C574.898 210.831 575.015 207.116 576.18 203.669C577.345 200.222 579.505 197.198 582.388 194.98C585.271 192.762 588.746 191.449 592.375 191.207C596.004 190.965 599.624 191.804 602.776 193.62C605.929 195.436 608.473 198.146 610.087 201.407C611.701 204.669 612.312 208.336 611.844 211.944C611.376 215.553 609.849 218.941 607.456 221.681C605.817 223.557 602.232 227.991 602.232 227.991C602.232 227.991 600.551 231.118 600.147 233.986C599.818 236.32 600.043 241.043 600.901 245.684M605.661 263.45L605.066 261.229" stroke="white" stroke-width="8" stroke-linecap="round" stroke-linejoin="round"/>
<path d="M625.154 227.556C625.636 225.754 626.639 224.136 628.039 222.904C629.44 221.673 631.173 220.885 633.02 220.639C634.868 220.394 636.745 220.701 638.418 221.524C640.09 222.346 641.481 223.646 642.414 225.259C643.349 226.872 643.783 228.727 643.663 230.587C643.545 232.448 642.876 234.232 641.744 235.713C640.612 237.194 639.066 238.306 637.302 238.909C636.095 239.322 633.368 240.371 633.368 240.371C633.368 240.371 631.822 241.327 630.907 242.497C630.163 243.448 629.053 245.602 628.245 247.881M625.806 256.983L626.111 255.845" stroke="white" stroke-width="6" stroke-linecap="round" stroke-linejoin="round"/>
<path d="M567.087 260.473C566.015 259.403 565.285 258.039 564.987 256.555C564.69 255.07 564.839 253.531 565.417 252.131C565.994 250.732 566.973 249.536 568.231 248.693C569.489 247.851 570.968 247.4 572.482 247.399C573.996 247.397 575.477 247.844 576.737 248.684C577.997 249.524 578.981 250.718 579.563 252.116C580.145 253.514 580.3 255.053 580.007 256.538C579.807 257.556 579.438 259.9 579.438 259.9C579.438 259.9 579.482 261.376 579.934 262.494C580.301 263.404 581.365 265.059 582.64 266.554M588.052 271.966L587.376 271.289" stroke="white" stroke-width="5" stroke-linecap="round" stroke-linejoin="round"/>
</g>
</g>
<path d="M186.145 425.593C175.772 422.814 168.325 413.7 167.624 402.915L167.597 402.109C167.508 399.279 167.767 396.988 168.358 394.785L180.195 350.607L150.417 398.866C146.327 406.042 148.79 415.278 155.948 419.481L248.95 473.159C250.114 473.818 251.323 474.308 252.555 474.638C259.007 476.367 266.052 473.664 269.395 467.796L280.206 450.797L186.145 425.593Z" fill="#34477B"/>
<path d="M327.633 357.598L307.667 432.112C305.514 440.147 297.216 444.938 289.182 442.785L188.75 415.874C188.102 415.701 187.472 415.462 186.906 415.24C180.328 412.576 176.509 405.58 177.831 398.573C177.87 398.166 177.974 397.777 178.078 397.389L198.044 322.875C200.197 314.841 208.494 310.05 216.529 312.203L316.96 339.113C324.995 341.266 329.785 349.564 327.633 357.598V357.598Z" fill="#34477B"/>
<path d="M238.625 352.848C236.707 360.004 229.351 364.252 222.195 362.335C215.037 360.417 210.79 353.06 212.708 345.903C214.625 338.747 221.982 334.498 229.139 336.416C236.296 338.334 240.543 345.691 238.625 352.848Z" fill="#FFC046"/>
<path d="M312.545 413.904L307.666 432.112C305.514 440.147 297.216 444.937 289.181 442.784L188.75 415.874C188.102 415.7 187.472 415.462 186.906 415.24L271.526 366.385C277.113 363.16 284.369 365.104 287.595 370.691L312.545 413.904Z" fill="#58A75B"/>
<path d="M265.271 436.378L188.749 415.874C188.102 415.701 187.471 415.462 186.905 415.24C180.327 412.576 176.508 405.58 177.83 398.573L216.853 376.042C222.44 372.817 229.696 374.762 232.922 380.347L265.271 436.378Z" fill="#6BCB6E"/>
<defs>
<linearGradient id="paint0_linear" x1="842.846" y1="546.654" x2="76.5151" y2="177.298" gradientUnits="userSpaceOnUse">
<stop stop-color="#B38FFF"/>
<stop offset="0.0001" stop-color="#9878F0"/>
<stop offset="1" stop-color="#7D98F9"/>
</linearGradient>
<linearGradient id="paint1_linear" x1="249.942" y1="206.198" x2="704.525" y2="332.593" gradientUnits="userSpaceOnUse">
<stop stop-color="#567BDE"/>
<stop offset="1" stop-color="#7D56DB"/>
</linearGradient>
<clipPath id="clip0">
<rect x="510.472" y="191.025" width="148.899" height="148.899" transform="rotate(-15 510.472 191.025)" fill="white"/>
</clipPath>
</defs>
</svg>
