<svg width="34" height="34" viewBox="0 0 34 34" fill="none" xmlns="http://www.w3.org/2000/svg">
<path d="M29.7872 11.6875H11.9531C9.94075 11.6875 8.5 12.6406 8.5 14.2343V22.2721C8.5 25.2407 10.9225 26.5625 12.9349 26.5625H20.4818L26.9312 32.8004L26.9259 26.5625H29.7872C31.7996 26.5625 32.9375 24.769 32.9375 22.8236V14.3852C32.9375 12.4408 31.7996 11.6875 29.7872 11.6875Z" stroke="#2D3748" stroke-width="1.6" stroke-miterlimit="10" stroke-linecap="round" stroke-linejoin="round"/>
<path d="M13 17H16.9529" stroke="#2D3748" stroke-width="1.6" stroke-miterlimit="10" stroke-linecap="round" stroke-linejoin="round"/>
<path d="M13 21H20" stroke="#2D3748" stroke-width="1.6" stroke-miterlimit="10" stroke-linecap="round" stroke-linejoin="round"/>
<path d="M8.11006 20.3788L4.00987 23.7384L4.18731 17.374C2.34494 17.1955 1.0625 16.2361 1.0625 14.4118V4.83862C1.0625 2.89531 2.17281 2.125 4.18625 2.125H22.4017C24.4141 2.125 25.5 2.89531 25.5 4.83969V10.625" stroke="#2D3748" stroke-width="1.6" stroke-miterlimit="10" stroke-linecap="round" stroke-linejoin="round"/>
<path d="M7.4375 8.5H6.375" stroke="#2D3748" stroke-width="1.6" stroke-miterlimit="10" stroke-linecap="round" stroke-linejoin="round"/>
<path d="M19.125 8.5H13.8125" stroke="#2D3748" stroke-width="1.6" stroke-miterlimit="10" stroke-linecap="round" stroke-linejoin="round"/>
<path d="M23.9402 16.4185C24.0677 15.9406 24.3341 15.5112 24.7055 15.1846C25.0769 14.8581 25.5367 14.6489 26.0268 14.5837C26.5168 14.5185 27.0152 14.6002 27.4588 14.8183C27.9025 15.0365 28.2715 15.3813 28.5192 15.8093C28.7669 16.2373 28.8822 16.7292 28.8505 17.2228C28.8189 17.7165 28.6416 18.1897 28.3412 18.5826C28.0409 18.9756 27.6308 19.2706 27.1629 19.4305C26.8425 19.54 26.1191 19.8183 26.1191 19.8183C26.1191 19.8183 25.7087 20.0721 25.4663 20.3822C25.2689 20.6347 24.9745 21.206 24.76 21.8106M24.113 24.2254L24.1938 23.9236" stroke="#2D3748" stroke-width="1.6" stroke-linecap="round" stroke-linejoin="round"/>
</svg>
