<svg width="17" height="17" viewBox="0 0 17 17" fill="none" xmlns="http://www.w3.org/2000/svg">
<path d="M2.19152 0H14.5978C15.9977 0 17 0.875787 17 2.34031V9.72641C17 12.4543 15.3148 13.6689 13.9149 13.6689H7.96917C7.96917 13.6689 4.82978 17 3.48635 17C3.09065 17 3.48635 13.6689 3.48635 13.6689H2.19152C0.791609 13.6689 1.97178e-07 12.0208 1.97178e-07 10.2331V2.47896C1.97178e-07 0.692233 0.791609 0 2.19152 0Z" fill="#7B57DB"/>
<mask id="mask0" mask-type="alpha" maskUnits="userSpaceOnUse" x="0" y="0" width="17" height="17">
<path d="M2.19152 0H14.5978C15.9977 0 17 0.875787 17 2.34031V9.72641C17 12.4543 15.3148 13.6689 13.9149 13.6689H7.96917C7.96917 13.6689 4.82978 17 3.48635 17C3.09065 17 3.48635 13.6689 3.48635 13.6689H2.19152C0.791609 13.6689 1.97178e-07 12.0208 1.97178e-07 10.2331V2.47896C1.97178e-07 0.692233 0.791609 0 2.19152 0Z" fill="#7B57DB"/>
</mask>
<g mask="url(#mask0)">
<path d="M10 11C9 11.5 6 12.5 -0.5 12.5L2.5 14.5V18.5C3.7 18.9 7 16 8.5 14.5H17.5L17 -1.6442e-05H16C16 -1.6442e-05 15.0465 -0.133674 15.5 0.999945C17.5001 5.99988 11 10.5 10 11Z" fill="#5735B1"/>
</g>
<path d="M6.52002 4.5035C6.51964 4.08801 6.64237 3.68173 6.87271 3.33603C7.10304 2.99032 7.43064 2.7207 7.81408 2.56126C8.19752 2.40182 8.6196 2.35971 9.02696 2.44025C9.43432 2.52079 9.80867 2.72037 10.1027 3.01376C10.3967 3.30715 10.5972 3.68118 10.6788 4.08856C10.7604 4.49595 10.7195 4.9184 10.5612 5.30252C10.403 5.68664 10.1344 6.01518 9.78955 6.24661C9.5534 6.40508 9.02696 6.78815 9.02696 6.78815C9.02696 6.78815 8.74921 7.08328 8.6199 7.38762C8.51464 7.63536 8.39996 8.16288 8.35742 8.70004M8.35742 10.7999V10.5374" stroke="white" stroke-width="1.3" stroke-linecap="round" stroke-linejoin="round"/>
<path d="M11.5679 7.41744C11.6742 7.23298 11.8327 7.08415 12.0235 6.98976C12.2143 6.89537 12.4287 6.85966 12.6397 6.88715C12.8507 6.91463 13.0487 7.00407 13.2089 7.14417C13.369 7.28426 13.4839 7.46872 13.5392 7.67422C13.5946 7.87973 13.5877 8.09705 13.5195 8.29873C13.4514 8.5004 13.325 8.67736 13.1564 8.80726C12.9877 8.93715 12.7844 9.01413 12.5721 9.02847C12.4267 9.0383 12.095 9.07341 12.095 9.07341C12.095 9.07341 11.8962 9.1332 11.7608 9.23512C11.6506 9.31808 11.4646 9.52277 11.3081 9.75022M10.7702 10.682L10.8374 10.5655" stroke="white" stroke-width="0.8" stroke-linecap="round" stroke-linejoin="round"/>
<path d="M4.19153 9.33171C4.10493 9.18205 4.06463 9.01008 4.07571 8.83756C4.08679 8.66503 4.14875 8.49969 4.25377 8.36244C4.35879 8.22518 4.50215 8.12218 4.66573 8.06644C4.82931 8.01071 5.00576 8.00474 5.17277 8.0493C5.33979 8.09386 5.48988 8.18695 5.60407 8.31679C5.71825 8.44663 5.79141 8.6074 5.81429 8.77878C5.83717 8.95016 5.80875 9.12444 5.73262 9.27961C5.68048 9.38587 5.57046 9.63348 5.57046 9.63348C5.57046 9.63348 5.53176 9.79764 5.54849 9.93423C5.5621 10.0454 5.63054 10.2594 5.72698 10.4619M6.16393 11.2187L6.10931 11.1241" stroke="white" stroke-width="0.5" stroke-linecap="round" stroke-linejoin="round"/>
</svg>
