<svg width="94" height="78" viewBox="0 0 94 78" fill="none" xmlns="http://www.w3.org/2000/svg">
<path d="M90.8381 43.2746L89.1013 41.5378C91.1784 39.9753 92.5467 37.5134 92.5467 34.7291C92.5467 30.0291 88.7018 26.1836 84.0012 26.1836L68.983 26.1836L72.0081 23.1633C77.7547 17.4162 78.5414 8.60179 74.3923 2.00039C74.277 1.80331 74.1183 1.62839 73.948 1.45721C72.7342 0.239748 70.7648 0.239747 69.5516 1.45294L40.2787 30.7261L40.3174 30.7304C39.1429 31.9607 38.0809 33.3002 37.1462 34.7291H29.9087L29.9087 68.9111H40.3574C45.3923 74.1682 52.4664 77.4566 60.3219 77.4566H74.3752C77.5205 77.4566 80.2377 75.7305 81.7158 73.1887L92.3894 54.7988C93.393 53.4013 94 51.6965 94 49.8467C94 47.1845 92.7523 44.8344 90.8381 43.2746Z" fill="#F9E0D2"/>
<path d="M34.1821 30.4551L12.8184 30.4551L12.8184 73.1826H34.1821V30.4551Z" fill="white"/>
<path d="M29.9086 30.4547L29.9086 51.8163H12.8176L12.8176 73.1801C32.8883 73.1801 28.6519 73.1796 34.1814 73.1822C34.1814 57.7207 34.1814 45.9477 34.1814 30.4547H29.9086Z" fill="#EFEEEE"/>
<path d="M23.5044 66.767C25.8642 66.767 27.7772 64.8541 27.7772 62.4943C27.7772 60.1345 25.8642 58.2216 23.5044 58.2216C21.1447 58.2216 19.2317 60.1345 19.2317 62.4943C19.2317 64.8541 21.1447 66.767 23.5044 66.767Z" fill="#565656"/>
<path d="M46.9997 51.8164C42.2801 51.8164 38.4541 47.9904 38.4541 43.2709V33.0796C38.0263 33.6372 37.5315 34.1395 37.1462 34.7291H34.1814L34.1814 68.9074H38.4541L40.3574 68.9112C45.3923 74.1682 52.4664 77.4567 60.3218 77.4567H74.3752C77.5205 77.4567 80.2377 75.7305 81.7158 73.1887L92.3894 54.7988C93.0191 53.9218 93.4154 52.8958 93.6805 51.8167L46.9997 51.8164Z" fill="#F6D2BF"/>
<path d="M12.8183 30.4572H0L0 73.1847H12.8183L12.8183 30.4572Z" fill="#1C1937"/>
</svg>
